<svg class="illustration" width="1152" height="700" viewBox="0 0 1152 700" fill="none" xmlns="http://www.w3.org/2000/svg">
<rect x="181" y="115" width="708.986" height="444.596" rx="11.8384" fill="#E8E8E8"/>
<path d="M181 115L209.529 177.522L344.285 483.454L889.986 559.596H181V115Z" fill="black" fill-opacity="0.06"/>
<rect x="198.1" y="134.73" width="669.525" height="28.9382" rx="14.4691" fill="#F8F8F8"/>
<rect x="198.1" y="184.713" width="153.899" height="345.943" rx="7.65925" fill="white"/>
<rect x="371.729" y="184.713" width="495.895" height="346.36" rx="7.66849" fill="white"/>
<rect x="371.729" y="184.713" width="495.895" height="346.36" rx="7.66849" fill="white"/>
<circle cx="212.569" cy="149.199" r="5.26149" fill="#C4C4C4"/>
<circle cx="229.668" cy="149.199" r="5.26149" fill="#C4C4C4"/>
<circle cx="246.768" cy="149.199" r="5.26149" fill="#C4C4C4"/>
<rect x="398.036" y="218.916" width="306.482" height="167.052" rx="14.4691" fill="black" fill-opacity="0.04"/>
<path d="M415.305 338.382L438.371 316.529L465.687 322.6L483.897 300.14L526.995 279.502L548.847 306.21L601.657 283.751L633.221 316.529L667.821 300.14L679.961 279.502" stroke="#C8C8C8" stroke-width="2.42803"/>
<rect x="398.036" y="412.275" width="169.683" height="18.4152" rx="9.20761" fill="black" fill-opacity="0.04"/>
<rect x="398.036" y="442.529" width="306.482" height="10.523" rx="5.26149" fill="black" fill-opacity="0.04"/>
<rect x="398.036" y="464.889" width="306.482" height="10.523" rx="5.26149" fill="black" fill-opacity="0.04"/>
<rect x="398.036" y="487.25" width="306.482" height="10.523" rx="5.26149" fill="black" fill-opacity="0.04"/>
<rect x="211.254" y="218.916" width="127.591" height="43.4073" rx="21.7036" fill="#C4C4C4" fill-opacity="0.25"/>
<circle cx="438.372" cy="317.741" r="4.85607" fill="#C6C6C6"/>
<circle cx="466.294" cy="322.596" r="4.85607" fill="#C6C6C6"/>
<circle cx="483.29" cy="300.745" r="4.85607" fill="#C6C6C6"/>
<circle cx="525.781" cy="280.106" r="4.85607" fill="#C6C6C6"/>
<circle cx="548.847" cy="305.602" r="4.85607" fill="#C6C6C6"/>
<circle cx="601.05" cy="284.964" r="4.85607" fill="#C6C6C6"/>
<circle cx="632.614" cy="315.313" r="4.85607" fill="#C6C6C6"/>
<circle cx="667.821" cy="299.53" r="4.85607" fill="#C6C6C6"/>
<path fill-rule="evenodd" clip-rule="evenodd" d="M740.016 470.594C821.889 448.656 870.476 364.501 848.538 282.628C826.601 200.755 742.445 152.168 660.572 174.105C578.699 196.043 530.112 280.199 552.05 362.072C573.988 443.945 658.143 492.532 740.016 470.594ZM719.554 394.23C679.856 404.867 639.051 381.308 628.414 341.61C617.777 301.912 641.336 261.107 681.034 250.47C720.732 239.833 761.537 263.391 772.174 303.09C782.811 342.788 759.253 383.593 719.554 394.23ZM285.198 330.547C285.58 329.439 285.788 328.25 285.788 327.012C285.788 321.026 280.936 316.174 274.95 316.174C268.965 316.174 264.113 321.026 264.113 327.012C264.113 329.573 265.001 331.926 266.486 333.781L232.39 372.349L232.388 372.351L207.569 400.317L210.184 402.637L235.005 374.669L235.007 374.667L269.081 336.124C270.773 337.216 272.788 337.849 274.95 337.849C278.418 337.849 281.505 336.221 283.489 333.687L347.262 388.349C346.845 389.5 346.618 390.742 346.618 392.037C346.618 398.023 351.47 402.875 357.456 402.875C363.441 402.875 368.293 398.023 368.293 392.037C368.293 389.249 367.24 386.707 365.511 384.787L397.162 336.205C398.827 337.247 400.795 337.849 402.903 337.849C407.309 337.849 411.1 335.221 412.795 331.446L478.775 358.209C479.002 363.995 483.763 368.615 489.604 368.615C495.589 368.615 500.441 363.763 500.441 357.777C500.441 354.998 499.395 352.463 497.675 350.545L517.3 319.557L514.347 317.687L494.934 348.339C493.36 347.448 491.541 346.94 489.604 346.94C484.716 346.94 480.584 350.176 479.233 354.623L413.693 328.038C413.725 327.7 413.741 327.358 413.741 327.012C413.741 321.026 408.889 316.174 402.903 316.174C396.918 316.174 392.066 321.026 392.066 327.012C392.066 329.614 392.983 332.002 394.511 333.87L362.77 382.59C361.199 381.705 359.386 381.2 357.456 381.2C354.042 381.2 350.997 382.778 349.011 385.244L285.198 330.547ZM400.456 373.51H433.318V527.333H400.456V373.51ZM357.805 428.745H390.667V527.332H357.805V428.745ZM348.016 409.169H315.154V527.334H348.016V409.169ZM272.503 389.591H305.365V527.333H272.503V389.591Z" fill="
#00801f"/>
<path d="M853.765 316.734C852.812 293.293 846.498 270.383 835.308 249.763C824.119 229.144 808.351 211.364 789.216 197.79C770.081 184.216 748.09 175.209 724.931 171.462C701.772 167.715 678.062 169.327 655.623 176.174L678.698 251.79C689.578 248.47 701.074 247.689 712.303 249.506C723.533 251.322 734.196 255.689 743.474 262.271C752.751 268.853 760.397 277.474 765.823 287.472C771.248 297.47 774.31 308.578 774.772 319.944L853.765 316.734Z" fill="white" fill-opacity="0.33"/>
<path d="M655.638 175.168C625.907 184.237 599.631 202.12 580.286 226.451C560.942 250.782 549.441 280.413 547.306 311.423C545.171 342.433 552.503 373.361 568.331 400.113C584.158 426.865 607.736 448.18 635.944 461.238L669.156 389.494C655.479 383.163 644.046 372.828 636.372 359.856C628.697 346.885 625.142 331.889 626.178 316.853C627.213 301.817 632.789 287.449 642.169 275.652C651.548 263.855 664.289 255.184 678.705 250.786L655.638 175.168Z" fill="white" fill-opacity="0.58"/>
<path d="M635.515 461.505C669.102 476.886 707.109 479.637 742.561 469.252L720.337 393.382C703.147 398.418 684.718 397.084 668.433 389.626L635.515 461.505Z" fill="white" fill-opacity="0.44"/>
<path d="M209 402.093L233.821 374.125L276.473 325.881L357.23 395.101L402.328 325.881L489.378 361.19L515.947 319.238" stroke="white" stroke-opacity="0.19" stroke-width="3.49598"/>
<circle cx="274.838" cy="327.838" r="10.8376" fill="black" fill-opacity="0.01"/>
<path d="M368.783 391.5C368.783 397.485 363.931 402.337 357.945 402.337C351.96 402.337 347.108 397.485 347.108 391.5C347.108 385.514 351.96 380.662 357.945 380.662C363.931 380.662 368.783 385.514 368.783 391.5Z" fill="black" fill-opacity="0.01"/>
<circle cx="402.838" cy="327.838" r="10.8376" fill="black" fill-opacity="0.01"/>
<circle cx="489.838" cy="357.838" r="10.8376" fill="black" fill-opacity="0.01"/>
<path fill-rule="evenodd" clip-rule="evenodd" d="M888.869 305.088L887.017 290.274C878.077 292.287 875.627 278.532 880.722 258.531C882.468 251.677 894.689 253.77 900.508 258.531C905.813 262.871 904.085 275.122 902.936 283.267C902.824 284.058 902.718 284.81 902.625 285.513C901.567 293.449 901.037 293.713 901.037 293.713L900.508 305.088H888.869ZM845.391 325.609C848.565 322.7 856.465 310.84 856.465 310.84C856.465 310.84 867.185 302.332 872.428 303.434C878.06 304.617 876.076 316.313 876.076 316.313L870.758 322.312C847.527 356.678 832.202 348.786 829.557 338.205C826.912 327.623 827.139 287.253 827.139 287.253C827.139 287.253 823.046 271.727 826.081 269.795C828.991 267.943 832.43 276.143 832.43 276.143C832.43 276.143 834.546 265.826 835.604 276.143C835.946 279.472 835.075 287.253 835.075 287.253C835.075 287.253 842.217 328.519 845.391 325.609ZM866.023 393.221C868.046 382.064 867.837 375.806 866.023 364.652L910.527 358.067C910.527 363.65 910.39 368.047 910.264 372.092V372.092C910.04 379.282 909.85 385.36 910.527 395.009L866.023 393.221ZM879.36 560.893L872.747 498.994H886.423L886.247 498.124L903.686 496.713C903.686 496.713 908.117 538.764 910.071 557.631C910.319 560.027 910.795 562.772 911.257 565.435C912.243 571.122 913.164 576.434 911.661 577.169C910.678 577.649 909.278 577.798 907.182 578.021C904.573 578.298 900.885 578.69 895.579 579.979C892.893 580.632 890.285 581.062 887.969 581.302C884.489 582.147 879.218 583.186 872.747 584.171C859.521 586.184 858.616 584.746 860.843 583.113C861.505 582.628 862.276 582.055 863.133 581.418C867.42 578.234 873.849 573.458 879.36 570.151V560.893ZM892.518 570.85C894.845 569.293 897.125 567.746 899.075 566.331L898.027 556.542L893.164 532.426C892.322 542.927 891.678 553.655 891.793 560.893C891.832 563.385 892.096 566.24 892.348 568.978C892.406 569.61 892.464 570.236 892.518 570.85Z" fill="#FFB3A9"/>
<path fill-rule="evenodd" clip-rule="evenodd" d="M866.743 335.597V373.574C883.499 378.585 891.513 377.222 904.989 374.93C907.522 374.499 910.249 374.035 913.263 373.574C911.682 360.767 912.012 347.825 912.301 336.487C912.679 321.667 912.987 309.588 908.864 304.134C900.664 293.289 873.4 290.191 851.18 315.321L866.743 335.597ZM872.747 584.171C879.208 583.187 884.473 582.15 887.953 581.305C890.273 581.065 892.887 580.635 895.58 579.981C900.886 578.692 904.574 578.3 907.183 578.022C909.278 577.8 910.678 577.651 911.661 577.17C913.868 576.092 913.147 560.24 910.263 563.536C907.056 567.202 906.136 567.03 903.992 566.629C902.863 566.419 901.395 566.144 899.076 566.333C897.178 567.71 894.968 569.211 892.708 570.725C892.439 567.749 891.993 565.308 891.793 565.633C887.701 572.274 884.843 571.522 881.53 570.65C880.832 570.466 880.114 570.277 879.36 570.151C873.849 573.457 867.42 578.233 863.134 581.417L863.133 581.417C862.276 582.054 861.505 582.628 860.843 583.113C858.616 584.746 859.521 586.183 872.747 584.171Z" fill="

#c9e7bf"/>
<path d="M860.843 583.113C864.811 580.204 872.747 574.12 879.36 570.152C883.693 570.878 886.839 573.674 891.792 565.634C892.262 564.872 894.085 579.322 891.792 580.204C889.5 581.085 882.481 582.69 872.747 584.172C859.52 586.184 858.616 584.747 860.843 583.113Z" fill="black" fill-opacity="0.03"/>
<path d="M894.351 267.421C891.962 264.776 888.002 261.337 881.815 261.337C875.628 261.337 871.969 253.296 876.892 245.201C883.77 236.208 892.287 246.894 899.906 245.201C909.429 243.085 912.338 259.75 922.126 258.957C931.913 258.163 935.352 263.718 941.965 272.447C948.578 281.177 957.043 274.035 965.508 281.177C973.973 288.319 971.592 306.571 965.508 310.539C959.424 314.507 965.508 329.585 952.546 329.585C936.565 329.585 929.533 327.468 922.126 318.739C916.483 315.389 916.306 306.571 907.842 310.539C902.665 312.966 891.441 295.725 894.351 283.028C897.26 270.33 898.227 271.715 894.351 267.421Z" fill="#1E4278"/>
<path fill-rule="evenodd" clip-rule="evenodd" d="M866.287 392.729C881.144 390.703 895.219 390.844 910.983 392.729C910.983 392.729 913.69 406.292 910.983 416.446C910.881 416.826 910.777 417.213 910.669 417.605C908.232 447.574 904.142 489.418 904.142 489.418L909.615 548.251L895.223 546.695L895.476 551.443L872.673 549.163L857.622 468.894L866.287 392.729Z" fill="#1F7C77"/>
<path d="M910.071 391.361C894.307 389.476 881.144 390.702 866.287 392.728L857.622 469.35L872.673 549.618L895.476 551.442L892.74 474.823C892.74 474.823 909.694 437.504 910.983 415.988C911.611 405.499 910.071 391.361 910.071 391.361Z" fill="black" fill-opacity="0.12"/>
</svg>
