<svg class="illustration" width="1155" height="700" viewBox="0 0 1155 700" fill="none" xmlns="http://www.w3.org/2000/svg">
<path fill-rule="evenodd" clip-rule="evenodd" d="M775.784 266.215C774.354 269.224 772.369 273.615 772.839 273.85C773.217 274.04 774.915 274.59 776.438 275.068C778.674 285.138 787.659 292.668 798.402 292.668C810.829 292.668 820.902 282.595 820.902 270.169C820.902 257.742 810.829 247.669 798.402 247.669C792.664 247.669 783.011 249.522 779.037 253.058C775.335 256.351 775.548 261.037 775.783 266.2C775.783 266.205 775.784 266.21 775.784 266.215Z" fill="#8A5E3C"/>
<path d="M809.594 512.79L837.291 511.503L808.531 479.515L785.67 486.18L809.594 512.79Z" fill="#8A5E3C"/>
<path d="M804.398 507.475L833.741 507.28L826.785 499.485L797.442 499.681L804.398 507.475Z" fill="#F0F1F1"/>
<path fill-rule="evenodd" clip-rule="evenodd" d="M324.772 297.266C319.096 302.934 315.585 310.774 315.585 319.434C315.585 336.745 329.621 350.789 346.94 350.789H803.045C811.704 350.789 819.545 347.278 825.213 341.602C830.835 335.981 834.333 328.244 834.399 319.683C834.535 302.301 819.873 288.079 802.49 288.079H700.745C683.426 288.079 669.389 274.034 669.389 256.723V255.716C669.389 241.136 679.34 228.879 692.817 225.368H709.192C711.931 225.368 714.584 225.014 717.111 224.36C722.59 222.935 727.479 220.062 731.36 216.181C736.988 210.561 740.488 202.804 740.546 194.231C740.664 176.865 726.003 162.657 708.636 162.657H526.759C518.1 162.657 510.259 166.168 504.591 171.844C498.915 177.512 495.404 185.353 495.404 194.013C495.404 209.922 507.248 223.061 522.6 225.095C522.899 225.134 523.203 225.149 523.504 225.155C538.244 225.464 546.613 241.284 546.613 255.716V256.723C546.613 274.034 532.577 288.079 515.258 288.079H346.94C338.281 288.079 330.44 291.59 324.772 297.266ZM245.872 561.8H910.289C916.846 561.8 922.161 556.484 922.161 549.927V523.041C922.161 516.484 916.846 511.169 910.289 511.169H245.872C239.315 511.169 234 516.484 234 523.041V549.927C234 556.484 239.315 561.8 245.872 561.8Z" fill="#F3F3F3"/>
<path d="M839.671 519.89C839.671 519.89 839.828 514.418 836.688 509.562L836.807 506.658C836.83 506.09 836.376 505.617 835.808 505.617H803.6C802.986 505.617 802.517 506.165 802.612 506.772L803.096 509.866L784.3 515.878C782.445 516.471 781.094 518.023 780.805 519.89H839.671V519.89Z" fill="#434244"/>
<path d="M710.05 323.663C710.05 323.663 691.032 300.513 689.231 304.226C687.429 307.938 689.586 312.578 689.586 312.578C689.586 312.578 663.442 299.682 661.403 303.144C659.363 306.606 659.646 329.302 668.883 334.651C674.19 337.724 697.382 349.988 697.382 349.988L710.05 323.663Z" fill="#6A330D"/>
<path d="M798.402 320.132C796.29 345.449 801.362 405.383 765.65 387.517C733.519 371.442 711.692 352.362 711.692 352.362" stroke="#6A330D" stroke-width="29" stroke-miterlimit="10" stroke-linecap="round"/>
<path d="M354.792 320.132C356.905 345.449 367.915 373.952 407.64 369.906C459.467 364.628 462.323 359.509 462.323 359.509" stroke="#F0B9B2" stroke-width="41" stroke-miterlimit="10" stroke-linecap="round"/>
<path d="M467.983 513.194H441.009L430.972 484.792H457.946L467.983 513.194Z" fill="#F0B9B2"/>
<path d="M465.703 506.72H438.729L436.967 501.718H463.941L465.703 506.72Z" fill="#F0F1F1"/>
<path d="M434.301 520.059C434.301 520.059 434.154 514.767 437.089 510.071L436.979 507.295C436.957 506.728 437.411 506.256 437.979 506.256H467.951C468.562 506.256 469.031 506.8 468.939 507.405L468.492 510.365L486.063 516.179C487.797 516.753 489.06 518.254 489.33 520.059H434.301V520.059Z" fill="#434244"/>
<path d="M341.64 513.192L315.087 512.708L341.146 482.722L364.005 487.456L341.64 513.192Z" fill="#F0B9B2"/>
<path d="M346.321 507.863H318.95L325.452 500.324H352.823L346.321 507.863Z" fill="#F0F1F1"/>
<path d="M313.524 520.058C313.524 520.058 313.377 514.765 316.312 510.069L316.203 507.293C316.18 506.726 316.634 506.254 317.202 506.254H347.174C347.786 506.254 348.254 506.798 348.163 507.403L347.715 510.363L365.286 516.178C367.02 516.751 368.283 518.252 368.553 520.058H313.524V520.058Z" fill="#434244"/>
<path d="M519.256 276.345L489.526 268.938L489.993 267.067C490.69 264.269 493.523 262.566 496.32 263.263L515.919 268.146C518.716 268.843 520.419 271.676 519.722 274.474L519.256 276.345Z" fill="#BBBDBF"/>
<path d="M549.178 283.589L519.449 276.182L519.915 274.311C520.612 271.514 523.445 269.811 526.242 270.508L545.841 275.39C548.639 276.087 550.341 278.92 549.644 281.718L549.178 283.589Z" fill="#BBBDBF"/>
<path d="M463.158 395.371L499.932 404.533L499.466 406.404C498.769 409.202 495.936 410.905 493.138 410.208L466.496 403.57C463.698 402.873 461.995 400.04 462.692 397.242L463.158 395.371Z" fill="#BBBDBF"/>
<path d="M683.228 452.127C682.493 452.127 681.755 452.036 681.033 451.855L426.216 388.363C421.382 387.157 418.428 382.241 419.634 377.405L447.483 265.651C448.49 261.612 452.095 258.791 456.251 258.791C456.982 258.791 457.717 258.882 458.436 259.061L713.249 322.561C718.085 323.76 721.04 328.673 719.839 333.514L691.991 445.273C690.984 449.309 687.381 452.127 683.228 452.127Z" fill="#F3F3F3"/>
<path d="M456.251 255.792V261.792C456.739 261.792 457.23 261.853 457.707 261.971L696.757 321.539L712.531 325.474C714.093 325.861 715.411 326.834 716.241 328.215C717.073 329.598 717.317 331.224 716.93 332.785L689.081 444.546C688.408 447.243 686.001 449.127 683.227 449.127C682.737 449.127 682.243 449.066 681.757 448.945L666.001 445.021L426.944 385.454C423.713 384.647 421.739 381.362 422.545 378.131L450.394 266.377C451.067 263.678 453.475 261.792 456.251 261.792L456.251 255.792ZM456.25 255.792C450.854 255.792 445.938 259.448 444.572 264.926L416.723 376.68C415.114 383.133 419.047 389.666 425.491 391.275L664.551 450.844L680.307 454.767C681.285 455.011 682.264 455.127 683.227 455.127C688.626 455.127 693.537 451.467 694.902 445.999L722.752 334.236C724.351 327.783 720.428 321.25 713.975 319.65L698.209 315.718L459.158 256.149C458.185 255.907 457.21 255.792 456.25 255.792Z" fill="white"/>
<path fill-rule="evenodd" clip-rule="evenodd" d="M840.249 162.658C840.249 176.276 829.21 187.316 815.591 187.316C801.973 187.316 790.934 176.276 790.934 162.658C790.934 149.04 801.973 138 815.591 138C829.21 138 840.249 149.04 840.249 162.658ZM504.952 282.228L477.283 393.269L482.536 394.578L510.205 283.537L504.952 282.228ZM627.7 317.868L620.961 344.915C619.994 348.795 616.065 351.156 612.185 350.19L585.138 343.45C581.258 342.483 578.897 338.554 579.863 334.675L586.603 307.627C587.57 303.747 591.499 301.386 595.378 302.353L622.426 309.092C626.306 310.059 628.667 313.988 627.7 317.868ZM686.384 436.563L710.801 338.574C711.767 334.694 709.406 330.765 705.526 329.799L652.316 316.54C648.436 315.573 644.507 317.935 643.54 321.815L619.124 419.804C618.157 423.684 620.519 427.613 624.399 428.579L677.609 441.838C681.489 442.805 685.418 440.443 686.384 436.563ZM610.024 388.809L603.284 415.856C602.317 419.736 598.388 422.098 594.508 421.131L567.461 414.392C563.581 413.425 561.22 409.496 562.187 405.616L568.926 378.569C569.893 374.689 573.822 372.327 577.702 373.294L604.749 380.034C608.629 381 610.99 384.929 610.024 388.809Z" fill="#7ed321"/>
<path d="M453.792 304.8L443.578 345.793C442.122 351.637 436.204 355.194 430.36 353.738L422.904 351.88L438.392 289.725L445.848 291.583C451.692 293.039 455.249 298.956 453.792 304.8Z" fill="white"/>
<path d="M515.833 284.938L488.164 395.979L490.791 396.633L518.459 285.592L515.833 284.938Z" fill="#D0D2D3"/>
<path d="M518.888 293.467L493.042 397.193L495.668 397.848L521.514 294.121L518.888 293.467Z" fill="#D0D2D3"/>
<path d="M521.085 305.441L497.92 398.409L500.546 399.064L523.711 306.096L521.085 305.441Z" fill="#D0D2D3"/>
<path d="M579.577 352.6L576.419 365.272L579.045 365.927L582.203 353.254L579.577 352.6Z" fill="#D0D2D3"/>
<path d="M585.12 351.145L581.297 366.488L583.923 367.143L587.746 351.8L585.12 351.145Z" fill="#D0D2D3"/>
<path d="M589.601 353.952L586.174 367.703L588.801 368.358L592.227 354.606L589.601 353.952Z" fill="#D0D2D3"/>
<path d="M598.793 357.388L595.635 370.061L598.262 370.715L601.42 358.042L598.793 357.388Z" fill="#D0D2D3"/>
<path d="M604.336 355.934L600.513 371.276L603.14 371.931L606.963 356.588L604.336 355.934Z" fill="#D0D2D3"/>
<path d="M608.817 358.741L605.391 372.492L608.017 373.147L611.444 359.395L608.817 358.741Z" fill="#D0D2D3"/>
<path d="M438.367 364.101L434.067 381.358C433.643 383.06 431.92 384.096 430.218 383.672H430.218C428.516 383.248 427.48 381.524 427.904 379.822L432.204 362.565C432.628 360.863 434.351 359.827 436.053 360.251H436.054C437.756 360.675 438.791 362.399 438.367 364.101Z" fill="#929497"/>
<path d="M461.88 269.739L457.58 286.996C457.156 288.698 455.432 289.734 453.73 289.31C452.028 288.886 450.992 287.162 451.416 285.46L455.716 268.203C456.14 266.501 457.864 265.465 459.566 265.889H459.566C461.268 266.313 462.304 268.037 461.88 269.739Z" fill="#929497"/>
<path d="M490.564 283.534L466.072 381.827C464.951 386.323 460.399 389.06 455.903 387.939H455.903C451.407 386.819 448.67 382.266 449.791 377.77L474.282 279.477C475.403 274.981 479.955 272.245 484.451 273.365C488.947 274.485 491.684 279.038 490.564 283.534Z" fill="#E5E6E7"/>
<path opacity="0.5" d="M716.927 332.789L689.077 444.549C688.407 447.239 685.997 449.129 683.227 449.129C682.737 449.129 682.247 449.069 681.757 448.949L665.997 445.019L696.757 321.539L712.527 325.469C714.097 325.859 715.407 326.839 716.237 328.219C717.077 329.599 717.317 331.219 716.927 332.789Z" fill="#F0F1F1"/>
<path opacity="0.5" d="M694.776 378.66L691.239 392.855C691.154 393.196 690.847 393.436 690.496 393.436C690.433 393.436 690.371 393.429 690.309 393.413V393.413C689.203 393.138 688.53 392.018 688.806 390.912L691.715 379.233C691.991 378.127 693.111 377.454 694.217 377.73L694.217 377.73C694.416 377.779 694.583 377.904 694.688 378.079C694.795 378.254 694.825 378.46 694.776 378.66Z" fill="#BBBDBF"/>
<path d="M387.547 415.72C354.853 425.781 320.285 439.256 287.591 429.195L289.464 377.548C289.464 337.367 322.037 304.794 362.218 304.794H369.359C379.404 304.794 387.547 312.937 387.547 322.982V415.72Z" fill="#414042"/>
<path fill-rule="evenodd" clip-rule="evenodd" d="M342.696 477.52L331.162 491.395L360.071 510.256L409.408 469.402L404.946 455.143C404.106 454.499 403.222 453.86 402.297 453.237L386.943 459.122L353.581 473.756C353.118 473.983 352.652 474.201 352.183 474.412L352.182 474.412C349.042 475.825 345.866 476.851 342.696 477.52Z" fill="#414042"/>
<path d="M348.459 368.761C350.571 394.077 361.581 422.581 401.307 418.535C410.85 417.563 428.656 416.788 435.167 415.857" stroke="#FFC3B8" stroke-width="38" stroke-miterlimit="10"/>
<path d="M324.971 370.723C323.145 348.843 326.832 329.695 327.259 327.583C331.58 306.183 377.787 315.513 373.466 336.914L373.478 336.853C373.45 336.997 370.666 351.437 371.948 366.803L324.971 370.723Z" fill="#F0F1F1"/>
<path d="M375.352 283.774H334.232V312.273H375.352V283.774Z" fill="#414042"/>
<path fill-rule="evenodd" clip-rule="evenodd" d="M376.757 275.068C374.521 285.138 365.536 292.668 354.792 292.668C342.366 292.668 332.292 282.595 332.292 270.169C332.292 257.742 342.366 247.669 354.792 247.669C360.53 247.669 370.184 249.522 374.158 253.058C377.86 256.351 377.647 261.037 377.412 266.2C377.411 266.205 377.411 266.21 377.411 266.215C378.84 269.224 380.826 273.615 380.356 273.85C379.977 274.04 378.28 274.59 376.757 275.068Z" fill="#FFC3B8"/>
<path d="M685.212 513.194H712.186L722.223 484.792H695.249L685.212 513.194Z" fill="#8A5E3C"/>
<path d="M686.944 506.736L714.763 506.72L716.525 501.718L688.706 501.733L686.944 506.736Z" fill="#F0F1F1"/>
<path d="M718.894 520.059C718.894 520.059 719.04 514.767 716.105 510.071L716.215 507.295C716.238 506.728 715.784 506.256 715.216 506.256H685.244C684.632 506.256 684.164 506.8 684.255 507.405L684.702 510.365L667.132 516.179C665.398 516.753 664.135 518.254 663.865 520.059H718.894V520.059Z" fill="#434244"/>
<path fill-rule="evenodd" clip-rule="evenodd" d="M401.822 212.665C410.706 212.665 417.908 205.463 417.908 196.579C417.908 187.695 410.706 180.493 401.822 180.493C392.939 180.493 385.737 187.695 385.737 196.579C385.737 205.463 392.939 212.665 401.822 212.665ZM356.694 259.659L380.407 256.156C380.407 256.156 374.717 232.982 352.435 238.641C330.153 244.3 333.386 254.674 333.386 254.674C333.386 254.674 322.338 253.057 322.338 264.644V311.125L370.167 299.134L356.694 259.659ZM796.5 259.659L772.788 256.156C772.788 256.156 778.477 232.982 800.759 238.641C804.824 239.673 808.011 241.028 810.506 242.553C812.27 239.957 815.337 238.239 818.825 238.239C824.294 238.239 828.728 242.462 828.728 247.67C828.728 252.742 824.524 256.879 819.253 257.093C819.226 258.666 818.962 259.659 818.962 259.659C818.962 259.659 826.969 262.47 826.969 274.057C826.969 285.643 811.569 283.772 811.569 283.772L809.543 268.76C808.958 264.616 805.777 261.317 801.658 260.58L796.5 259.659ZM287.995 429.319C310.332 436.079 332.626 433.474 355.572 425.916C367.655 435.141 383.669 439.432 403.232 437.439C407.186 437.037 412.827 436.661 418.819 436.262L418.82 436.262L418.82 436.262L420.641 436.14C426.116 435.774 432.272 435.358 436.472 434.849C440.946 435.044 454.54 435.604 462.746 435.595L477.014 481.194L418.798 499.411L404.13 452.535L386.943 459.123L353.581 473.756C353.118 473.983 352.652 474.201 352.183 474.412L352.182 474.413C335.097 482.097 316.954 478.348 304.491 467.844C293.506 458.585 287.168 444.421 287.995 429.319ZM440.291 392.815C430.242 385.823 417.183 383.287 404.452 387.165L403.425 387.478L387.547 393.564V399.404C390.703 399.974 394.578 400.124 399.381 399.635C404.049 399.16 410.403 398.737 416.184 398.353L416.193 398.352L416.195 398.352L416.229 398.35C416.863 398.308 417.49 398.266 418.107 398.225C422.702 397.918 426.565 397.644 429.319 397.395L429.315 397.37C429.315 397.37 434.307 395.165 440.291 392.815ZM777.498 415.897C772.235 413.217 768.634 407.947 768.17 401.891L767.589 394.308L749.77 387.478L748.743 387.165C726.098 380.268 702.414 393.662 696.476 416.335L691.598 431.923C691.993 432.176 692.312 432.383 692.542 432.535C743.94 435.007 766.856 425.6 777.498 415.897ZM676.18 481.194L681.849 463.079C686.605 462.489 690.613 461.866 692.489 461.563C713.863 462.519 731.893 461.587 747.038 459.012L734.397 499.411L676.18 481.194ZM766.252 459.123L759.231 456.432C781.101 450.801 795.79 441.067 805.231 428.258C805.939 427.298 806.608 426.332 807.242 425.36C827.51 431.782 847.861 437.025 867.087 430.209L866.906 437.818L866.443 440.268C860.658 470.861 827.341 487.359 799.604 473.752L766.252 459.123ZM678.956 505.781C679.098 505.543 679.404 505.465 679.642 505.606L685.293 508.966L691.657 507.349C691.924 507.28 692.196 507.442 692.264 507.71C692.332 507.978 692.171 508.25 691.903 508.318L686.508 509.689L691.293 512.534C691.53 512.675 691.608 512.982 691.467 513.219C691.326 513.456 691.019 513.534 690.782 513.393L685.138 510.038L678.766 511.658C678.499 511.726 678.227 511.564 678.158 511.296C678.09 511.029 678.252 510.757 678.52 510.689L683.922 509.315L679.131 506.466C678.893 506.325 678.815 506.018 678.956 505.781ZM834.681 525.05H785.794C783.039 525.05 780.805 522.817 780.805 520.061V519.892H839.671V520.061C839.671 522.817 837.437 525.05 834.681 525.05ZM713.904 525.049H668.854C666.099 525.049 663.865 522.815 663.865 520.06H718.894C718.894 522.815 716.66 525.049 713.904 525.049ZM318.513 525.049H363.564C366.319 525.049 368.553 522.815 368.553 520.06H313.524C313.524 522.815 315.758 525.049 318.513 525.049ZM439.29 525.049H484.341C487.096 525.049 489.33 522.815 489.33 520.06H434.301C434.301 522.815 436.535 525.049 439.29 525.049ZM798.099 505.938C797.862 505.797 797.555 505.875 797.414 506.113C797.273 506.35 797.351 506.657 797.588 506.798L802.375 509.644L796.978 511.017C796.71 511.085 796.548 511.357 796.616 511.624C796.685 511.892 796.957 512.054 797.224 511.986L803.591 510.367L809.239 513.725C809.476 513.866 809.783 513.788 809.924 513.551C810.066 513.314 809.988 513.007 809.75 512.866L804.962 510.019L810.361 508.646C810.629 508.578 810.79 508.306 810.722 508.038C810.654 507.77 810.382 507.609 810.115 507.677L803.746 509.296L798.099 505.938ZM554.275 294.169L551.272 306.222C551.005 307.293 549.919 307.946 548.847 307.679L540.347 305.561C539.275 305.293 538.623 304.208 538.89 303.136L541.893 291.084C542.16 290.012 543.245 289.36 544.317 289.627L552.818 291.745C553.889 292.012 554.542 293.098 554.275 294.169ZM572.66 311.554L575.663 299.502C575.93 298.43 575.278 297.344 574.206 297.077L565.705 294.959C564.634 294.692 563.548 295.345 563.281 296.416L560.278 308.468C560.011 309.54 560.663 310.626 561.735 310.893L570.236 313.011C571.307 313.278 572.393 312.625 572.66 311.554ZM531.028 355.479L539.967 319.603L542.594 320.257L533.654 356.134L531.028 355.479ZM533.534 324.63L526.15 354.264L528.777 354.918L536.161 325.285L533.534 324.63ZM527.96 367.79L519.021 403.667L521.647 404.321L530.587 368.444L527.96 367.79ZM521.527 372.818L514.143 402.451L516.77 403.106L524.154 373.472L521.527 372.818ZM523.899 404.882L532.838 369.005L535.465 369.66L526.525 405.537L523.899 404.882ZM544.845 320.818L535.906 356.695L538.532 357.349L547.472 321.472L544.845 320.818ZM535.531 407.781L542.915 378.147L545.542 378.802L538.158 408.435L535.531 407.781ZM549.349 373.119L540.409 408.996L543.036 409.651L551.975 373.774L549.349 373.119ZM545.287 410.211L554.226 374.335L556.853 374.989L547.913 410.866L545.287 410.211ZM554.922 329.96L547.538 359.593L550.165 360.248L557.549 330.614L554.922 329.96ZM552.416 360.809L561.356 324.932L563.982 325.586L555.043 361.463L552.416 360.809ZM566.233 326.147L557.294 362.024L559.92 362.679L568.86 326.802L566.233 326.147Z" fill="#417505"/>
<path d="M380.407 256.156L380.48 256.65L381.023 256.57L380.892 256.037L380.407 256.156ZM356.694 259.659L356.621 259.164L356.027 259.252L356.221 259.82L356.694 259.659ZM352.435 238.641L352.558 239.126L352.558 239.126L352.435 238.641ZM333.386 254.674L333.314 255.169L334.1 255.284L333.864 254.525L333.386 254.674ZM322.338 311.125H321.838V311.766L322.46 311.61L322.338 311.125ZM370.167 299.134L370.289 299.619L370.816 299.487L370.64 298.973L370.167 299.134ZM772.788 256.156L772.302 256.037L772.171 256.57L772.715 256.65L772.788 256.156ZM796.5 259.659L796.588 259.167L796.58 259.165L796.573 259.164L796.5 259.659ZM800.759 238.641L800.636 239.126L800.636 239.126L800.759 238.641ZM810.506 242.553L810.245 242.98L810.651 243.229L810.919 242.834L810.506 242.553ZM819.253 257.093L819.233 256.593L818.761 256.612L818.753 257.084L819.253 257.093ZM818.962 259.659L818.479 259.53L818.36 259.977L818.797 260.131L818.962 259.659ZM811.569 283.772L811.074 283.838L811.125 284.221L811.509 284.268L811.569 283.772ZM809.543 268.76L810.038 268.693L810.038 268.69L809.543 268.76ZM801.658 260.58L801.57 261.073L801.57 261.073L801.658 260.58ZM355.572 425.916L355.876 425.519L355.666 425.359L355.416 425.441L355.572 425.916ZM287.995 429.319L288.14 428.84L287.53 428.656L287.496 429.291L287.995 429.319ZM403.232 437.439L403.181 436.942L403.181 436.942L403.232 437.439ZM418.819 436.262L418.853 436.761L418.853 436.761L418.819 436.262ZM418.82 436.262L418.79 435.763L418.787 435.763L418.82 436.262ZM418.82 436.262L418.851 436.761L418.854 436.761L418.82 436.262ZM420.641 436.14L420.675 436.639L420.675 436.639L420.641 436.14ZM436.472 434.849L436.494 434.35L436.453 434.348L436.412 434.353L436.472 434.849ZM462.746 435.595L463.223 435.446L463.113 435.095L462.745 435.095L462.746 435.595ZM477.014 481.194L477.164 481.671L477.641 481.522L477.492 481.045L477.014 481.194ZM418.798 499.411L418.321 499.56L418.47 500.037L418.947 499.888L418.798 499.411ZM404.13 452.535L404.607 452.386L404.448 451.878L403.951 452.068L404.13 452.535ZM386.943 459.123L386.764 458.656L386.753 458.66L386.742 458.665L386.943 459.123ZM353.581 473.756L353.38 473.298L353.37 473.302L353.361 473.307L353.581 473.756ZM352.183 474.412L352.388 474.869L352.388 474.868L352.183 474.412ZM352.182 474.413L351.978 473.956L351.977 473.957L352.182 474.413ZM304.491 467.844L304.169 468.226L304.169 468.226L304.491 467.844ZM404.452 387.165L404.306 386.687L404.306 386.687L404.452 387.165ZM440.291 392.815L440.474 393.281L441.345 392.939L440.577 392.405L440.291 392.815ZM403.425 387.478L403.28 387L403.263 387.005L403.246 387.011L403.425 387.478ZM387.547 393.564L387.368 393.097L387.047 393.22V393.564H387.547ZM387.547 399.404H387.047V399.822L387.458 399.896L387.547 399.404ZM399.381 399.635L399.432 400.132L399.381 399.635ZM416.184 398.353L416.218 398.852L416.218 398.852L416.184 398.353ZM416.193 398.352L416.163 397.853L416.159 397.853L416.193 398.352ZM416.195 398.352L416.224 398.851L416.228 398.851L416.195 398.352ZM416.229 398.35L416.196 397.851L416.196 397.851L416.229 398.35ZM418.107 398.225L418.14 398.724L418.14 398.724L418.107 398.225ZM429.319 397.395L429.364 397.893L429.893 397.845L429.813 397.32L429.319 397.395ZM429.315 397.37L429.113 396.912L428.763 397.067L428.821 397.445L429.315 397.37ZM768.17 401.891L767.671 401.929L767.671 401.929L768.17 401.891ZM777.498 415.897L777.835 416.266L778.369 415.779L777.725 415.451L777.498 415.897ZM767.589 394.308L768.088 394.27L768.064 393.954L767.768 393.841L767.589 394.308ZM749.77 387.478L749.948 387.011L749.932 387.005L749.915 387L749.77 387.478ZM748.743 387.165L748.597 387.644L748.597 387.644L748.743 387.165ZM696.476 416.335L696.953 416.484L696.957 416.473L696.96 416.461L696.476 416.335ZM691.598 431.923L691.121 431.774L691.007 432.139L691.329 432.344L691.598 431.923ZM692.542 432.535L692.268 432.952L692.382 433.027L692.518 433.034L692.542 432.535ZM681.849 463.079L681.787 462.583L681.468 462.622L681.372 462.93L681.849 463.079ZM676.18 481.194L675.703 481.045L675.554 481.522L676.031 481.671L676.18 481.194ZM692.489 461.563L692.511 461.064L692.46 461.061L692.409 461.07L692.489 461.563ZM747.038 459.012L747.515 459.161L747.759 458.382L746.954 458.519L747.038 459.012ZM734.397 499.411L734.247 499.888L734.725 500.037L734.874 499.56L734.397 499.411ZM759.231 456.432L759.106 455.947L757.59 456.338L759.052 456.898L759.231 456.432ZM766.252 459.123L766.453 458.665L766.442 458.66L766.431 458.656L766.252 459.123ZM805.231 428.258L804.829 427.961L804.829 427.961L805.231 428.258ZM807.242 425.36L807.393 424.883L807.03 424.769L806.823 425.087L807.242 425.36ZM867.087 430.209L867.587 430.221L867.605 429.495L866.92 429.738L867.087 430.209ZM866.906 437.818L867.398 437.911L867.405 437.871L867.406 437.83L866.906 437.818ZM866.443 440.268L866.934 440.361L866.934 440.361L866.443 440.268ZM799.604 473.752L799.825 473.303L799.815 473.298L799.805 473.294L799.604 473.752ZM679.642 505.606L679.386 506.036L679.386 506.036L679.642 505.606ZM678.956 505.781L678.527 505.525L678.527 505.525L678.956 505.781ZM685.293 508.966L685.037 509.396L685.215 509.502L685.416 509.451L685.293 508.966ZM691.657 507.349L691.78 507.833L691.78 507.833L691.657 507.349ZM692.264 507.71L692.749 507.587L692.749 507.587L692.264 507.71ZM691.903 508.318L691.78 507.833L691.78 507.833L691.903 508.318ZM686.508 509.689L686.385 509.205L685.215 509.502L686.253 510.119L686.508 509.689ZM691.293 512.534L691.037 512.964L691.037 512.964L691.293 512.534ZM691.467 513.219L691.897 513.475L691.897 513.475L691.467 513.219ZM690.782 513.393L691.037 512.964L691.037 512.964L690.782 513.393ZM685.138 510.038L685.393 509.608L685.215 509.502L685.015 509.553L685.138 510.038ZM678.766 511.658L678.643 511.173L678.643 511.173L678.766 511.658ZM678.158 511.296L677.674 511.42L677.674 511.42L678.158 511.296ZM678.52 510.689L678.397 510.204L678.397 510.204L678.52 510.689ZM683.922 509.315L684.046 509.8L685.215 509.502L684.178 508.885L683.922 509.315ZM679.131 506.466L679.386 506.036L679.386 506.036L679.131 506.466ZM780.805 519.892V519.392H780.305V519.892H780.805ZM839.671 519.892H840.171V519.392H839.671V519.892ZM663.865 520.06V519.56H663.365V520.06H663.865ZM718.894 520.06H719.394V519.56H718.894V520.06ZM368.553 520.06L369.053 520.06L369.053 519.56H368.553V520.06ZM313.524 520.06V519.56H313.024V520.06H313.524ZM489.33 520.06H489.83V519.56H489.33V520.06ZM434.301 520.06V519.56H433.801V520.06H434.301ZM797.414 506.113L796.984 505.857L796.984 505.857L797.414 506.113ZM798.099 505.938L797.844 506.368L797.844 506.368L798.099 505.938ZM797.588 506.798L797.844 506.368L797.844 506.368L797.588 506.798ZM802.375 509.644L802.499 510.129L803.668 509.831L802.631 509.215L802.375 509.644ZM796.978 511.017L796.855 510.532L796.855 510.532L796.978 511.017ZM796.616 511.624L796.132 511.748L796.132 511.748L796.616 511.624ZM797.224 511.986L797.101 511.501L797.101 511.501L797.224 511.986ZM803.591 510.367L803.846 509.937L803.668 509.831L803.468 509.883L803.591 510.367ZM809.239 513.725L809.495 513.296L809.495 513.296L809.239 513.725ZM809.924 513.551L810.354 513.807L810.354 513.807L809.924 513.551ZM809.75 512.866L809.495 513.296L809.495 513.296L809.75 512.866ZM804.962 510.019L804.838 509.534L803.668 509.831L804.706 510.448L804.962 510.019ZM810.361 508.646L810.238 508.161L810.238 508.161L810.361 508.646ZM810.722 508.038L811.207 507.915L811.207 507.915L810.722 508.038ZM810.115 507.677L810.238 508.161L810.238 508.161L810.115 507.677ZM803.746 509.296L803.49 509.726L803.668 509.831L803.869 509.78L803.746 509.296ZM551.272 306.222L550.787 306.101L550.787 306.101L551.272 306.222ZM554.275 294.169L554.76 294.29L554.76 294.29L554.275 294.169ZM548.847 307.679L548.727 308.164L548.727 308.164L548.847 307.679ZM540.347 305.561L540.468 305.075L540.468 305.075L540.347 305.561ZM538.89 303.136L539.375 303.257L539.375 303.257L538.89 303.136ZM541.893 291.084L541.408 290.963L541.408 290.963L541.893 291.084ZM544.317 289.627L544.438 289.142L544.438 289.142L544.317 289.627ZM552.818 291.745L552.697 292.23L552.697 292.23L552.818 291.745ZM575.663 299.502L576.148 299.622L576.148 299.622L575.663 299.502ZM572.66 311.554L572.175 311.433L572.175 311.433L572.66 311.554ZM574.206 297.077L574.085 297.562L574.085 297.562L574.206 297.077ZM565.705 294.959L565.584 295.444L565.584 295.444L565.705 294.959ZM563.281 296.416L563.766 296.537L563.766 296.537L563.281 296.416ZM560.278 308.468L559.793 308.347L559.793 308.347L560.278 308.468ZM561.735 310.893L561.856 310.407L561.856 310.407L561.735 310.893ZM570.236 313.011L570.357 312.526L570.357 312.526L570.236 313.011ZM539.967 319.603L540.088 319.117L539.603 318.996L539.482 319.482L539.967 319.603ZM531.028 355.479L530.543 355.358L530.422 355.844L530.907 355.964L531.028 355.479ZM542.594 320.257L543.079 320.378L543.2 319.893L542.715 319.772L542.594 320.257ZM533.654 356.134L533.533 356.619L534.019 356.74L534.14 356.255L533.654 356.134ZM526.15 354.264L525.665 354.143L525.544 354.628L526.029 354.749L526.15 354.264ZM533.534 324.63L533.655 324.145L533.17 324.024L533.049 324.509L533.534 324.63ZM528.777 354.918L528.656 355.404L529.141 355.524L529.262 355.039L528.777 354.918ZM536.161 325.285L536.646 325.406L536.767 324.921L536.281 324.8L536.161 325.285ZM519.021 403.667L518.536 403.546L518.415 404.031L518.9 404.152L519.021 403.667ZM527.96 367.79L528.081 367.305L527.596 367.184L527.475 367.669L527.96 367.79ZM521.647 404.321L521.526 404.806L522.012 404.927L522.133 404.442L521.647 404.321ZM530.587 368.444L531.072 368.565L531.193 368.08L530.708 367.959L530.587 368.444ZM514.143 402.451L513.658 402.33L513.537 402.816L514.022 402.936L514.143 402.451ZM521.527 372.818L521.648 372.333L521.163 372.212L521.042 372.697L521.527 372.818ZM516.77 403.106L516.649 403.591L517.134 403.712L517.255 403.227L516.77 403.106ZM524.154 373.472L524.639 373.593L524.76 373.108L524.274 372.987L524.154 373.472ZM532.838 369.005L532.959 368.52L532.474 368.399L532.353 368.884L532.838 369.005ZM523.899 404.882L523.413 404.761L523.293 405.246L523.778 405.367L523.899 404.882ZM535.465 369.66L535.95 369.781L536.071 369.295L535.585 369.175L535.465 369.66ZM526.525 405.537L526.404 406.022L526.889 406.143L527.01 405.657L526.525 405.537ZM535.906 356.695L535.42 356.574L535.3 357.059L535.785 357.18L535.906 356.695ZM544.845 320.818L544.966 320.333L544.481 320.212L544.36 320.697L544.845 320.818ZM538.532 357.349L538.411 357.834L538.896 357.955L539.017 357.47L538.532 357.349ZM547.472 321.472L547.957 321.593L548.078 321.108L547.592 320.987L547.472 321.472ZM542.915 378.147L543.036 377.662L542.551 377.541L542.43 378.026L542.915 378.147ZM535.531 407.781L535.046 407.66L534.925 408.145L535.411 408.266L535.531 407.781ZM545.542 378.802L546.027 378.922L546.148 378.437L545.663 378.316L545.542 378.802ZM538.158 408.435L538.037 408.92L538.522 409.041L538.643 408.556L538.158 408.435ZM540.409 408.996L539.924 408.875L539.803 409.36L540.288 409.481L540.409 408.996ZM549.349 373.119L549.469 372.634L548.984 372.513L548.863 372.998L549.349 373.119ZM543.036 409.651L542.915 410.136L543.4 410.257L543.521 409.771L543.036 409.651ZM551.975 373.774L552.46 373.895L552.581 373.41L552.096 373.289L551.975 373.774ZM554.226 374.335L554.347 373.85L553.862 373.729L553.741 374.214L554.226 374.335ZM545.287 410.211L544.802 410.091L544.681 410.576L545.166 410.697L545.287 410.211ZM556.853 374.989L557.338 375.11L557.459 374.625L556.974 374.504L556.853 374.989ZM547.913 410.866L547.792 411.351L548.277 411.472L548.398 410.987L547.913 410.866ZM547.538 359.593L547.053 359.472L546.932 359.958L547.418 360.078L547.538 359.593ZM554.922 329.96L555.043 329.475L554.558 329.354L554.437 329.839L554.922 329.96ZM550.165 360.248L550.044 360.733L550.529 360.854L550.65 360.369L550.165 360.248ZM557.549 330.614L558.034 330.735L558.155 330.25L557.67 330.129L557.549 330.614ZM561.356 324.932L561.477 324.447L560.991 324.326L560.87 324.811L561.356 324.932ZM552.416 360.809L551.931 360.688L551.81 361.173L552.295 361.294L552.416 360.809ZM563.982 325.586L564.467 325.707L564.588 325.222L564.103 325.101L563.982 325.586ZM555.043 361.463L554.922 361.948L555.407 362.069L555.528 361.584L555.043 361.463ZM557.294 362.024L556.809 361.903L556.688 362.388L557.173 362.509L557.294 362.024ZM566.233 326.147L566.354 325.662L565.869 325.541L565.748 326.026L566.233 326.147ZM559.92 362.679L559.799 363.164L560.285 363.285L560.405 362.799L559.92 362.679ZM568.86 326.802L569.345 326.923L569.466 326.438L568.981 326.317L568.86 326.802ZM417.408 196.579C417.408 205.187 410.43 212.165 401.822 212.165V213.165C410.983 213.165 418.408 205.739 418.408 196.579H417.408ZM401.822 180.993C410.43 180.993 417.408 187.971 417.408 196.579H418.408C418.408 187.419 410.983 179.993 401.822 179.993V180.993ZM386.237 196.579C386.237 187.971 393.215 180.993 401.822 180.993V179.993C392.662 179.993 385.237 187.419 385.237 196.579H386.237ZM401.822 212.165C393.215 212.165 386.237 205.187 386.237 196.579H385.237C385.237 205.739 392.662 213.165 401.822 213.165V212.165ZM380.334 255.661L356.621 259.164L356.767 260.153L380.48 256.65L380.334 255.661ZM352.558 239.126C358.04 237.733 362.468 238.121 366.03 239.459C369.596 240.798 372.329 243.102 374.391 245.595C376.455 248.09 377.84 250.763 378.709 252.818C379.143 253.844 379.447 254.713 379.642 255.323C379.74 255.629 379.81 255.869 379.856 256.032C379.879 256.113 379.895 256.175 379.906 256.216C379.911 256.237 379.915 256.252 379.918 256.262C379.919 256.267 379.92 256.27 379.92 256.273C379.921 256.274 379.921 256.274 379.921 256.275C379.921 256.275 379.921 256.275 379.921 256.275C379.921 256.275 379.921 256.275 380.407 256.156C380.892 256.037 380.892 256.036 380.892 256.036C380.892 256.036 380.892 256.035 380.892 256.035C380.891 256.034 380.891 256.032 380.891 256.031C380.89 256.027 380.889 256.022 380.887 256.016C380.884 256.004 380.879 255.986 380.873 255.963C380.861 255.916 380.843 255.849 380.819 255.762C380.77 255.588 380.696 255.336 380.595 255.019C380.392 254.384 380.077 253.486 379.63 252.429C378.736 250.315 377.306 247.549 375.162 244.958C373.017 242.365 370.149 239.937 366.381 238.522C362.609 237.106 357.971 236.719 352.312 238.156L352.558 239.126ZM333.386 254.674C333.864 254.525 333.864 254.525 333.864 254.526C333.864 254.526 333.864 254.526 333.864 254.527C333.864 254.527 333.864 254.527 333.864 254.527C333.864 254.527 333.864 254.527 333.864 254.526C333.863 254.523 333.862 254.519 333.86 254.511C333.856 254.497 333.85 254.474 333.842 254.441C333.827 254.376 333.805 254.275 333.785 254.142C333.744 253.875 333.708 253.48 333.729 252.986C333.771 251.999 334.042 250.608 334.984 249.036C336.865 245.894 341.482 241.938 352.558 239.126L352.312 238.156C341.105 241.002 336.198 245.063 334.126 248.522C333.09 250.252 332.778 251.808 332.73 252.943C332.706 253.51 332.747 253.969 332.796 254.292C332.821 254.454 332.848 254.581 332.869 254.671C332.879 254.715 332.888 254.751 332.895 254.776C332.899 254.789 332.902 254.799 332.904 254.807C332.905 254.811 332.906 254.814 332.907 254.817C332.907 254.818 332.908 254.819 332.908 254.82C332.908 254.821 332.908 254.821 332.908 254.821C332.909 254.822 332.909 254.823 333.386 254.674ZM322.838 264.644C322.838 261.828 323.508 259.863 324.474 258.485C325.44 257.106 326.73 256.276 328.039 255.781C329.352 255.285 330.673 255.13 331.674 255.102C332.173 255.088 332.588 255.105 332.876 255.126C333.02 255.136 333.132 255.147 333.207 255.155C333.244 255.16 333.272 255.163 333.29 255.165C333.299 255.167 333.306 255.167 333.31 255.168C333.312 255.168 333.313 255.168 333.314 255.169C333.314 255.169 333.314 255.169 333.314 255.169C333.314 255.169 333.314 255.169 333.314 255.169C333.314 255.169 333.314 255.169 333.386 254.674C333.459 254.179 333.458 254.179 333.458 254.179C333.458 254.179 333.457 254.179 333.457 254.179C333.456 254.179 333.456 254.179 333.455 254.178C333.453 254.178 333.45 254.178 333.447 254.177C333.44 254.176 333.431 254.175 333.419 254.174C333.395 254.171 333.361 254.166 333.317 254.162C333.23 254.152 333.105 254.14 332.947 254.128C332.631 254.106 332.183 254.087 331.646 254.102C330.575 254.133 329.135 254.298 327.685 254.846C326.232 255.396 324.76 256.334 323.655 257.911C322.549 259.489 321.838 261.666 321.838 264.644H322.838ZM322.838 311.125V264.644H321.838V311.125H322.838ZM370.046 298.649L322.217 310.64L322.46 311.61L370.289 299.619L370.046 298.649ZM356.221 259.82L369.694 299.296L370.64 298.973L357.168 259.497L356.221 259.82ZM772.715 256.65L796.427 260.153L796.573 259.164L772.861 255.661L772.715 256.65ZM800.882 238.156C795.223 236.719 790.585 237.106 786.813 238.522C783.045 239.937 780.177 242.365 778.032 244.958C775.889 247.549 774.458 250.315 773.564 252.429C773.117 253.486 772.802 254.384 772.599 255.019C772.498 255.336 772.424 255.588 772.375 255.762C772.351 255.849 772.333 255.916 772.321 255.963C772.315 255.986 772.31 256.004 772.307 256.016C772.306 256.022 772.304 256.027 772.304 256.031C772.303 256.032 772.303 256.034 772.303 256.035C772.302 256.035 772.302 256.036 772.302 256.036C772.302 256.036 772.302 256.037 772.788 256.156C773.273 256.275 773.273 256.275 773.273 256.275C773.273 256.275 773.273 256.275 773.273 256.275C773.273 256.274 773.273 256.274 773.274 256.273C773.274 256.27 773.275 256.267 773.276 256.262C773.279 256.252 773.283 256.237 773.288 256.216C773.299 256.175 773.316 256.113 773.338 256.032C773.384 255.869 773.454 255.629 773.552 255.323C773.747 254.713 774.051 253.844 774.485 252.818C775.354 250.763 776.739 248.09 778.803 245.595C780.866 243.102 783.598 240.798 787.164 239.459C790.726 238.121 795.154 237.733 800.636 239.126L800.882 238.156ZM810.766 242.127C808.222 240.571 804.987 239.199 800.882 238.156L800.636 239.126C804.66 240.148 807.799 241.485 810.245 242.98L810.766 242.127ZM818.825 237.739C815.171 237.739 811.949 239.539 810.092 242.272L810.919 242.834C812.59 240.375 815.503 238.739 818.825 238.739V237.739ZM829.228 247.67C829.228 242.163 824.547 237.739 818.825 237.739V238.739C824.042 238.739 828.228 242.761 828.228 247.67H829.228ZM819.273 257.592C824.789 257.369 829.228 253.033 829.228 247.67H828.228C828.228 252.452 824.258 256.39 819.233 256.593L819.273 257.592ZM818.962 259.659C819.446 259.787 819.446 259.787 819.446 259.787C819.446 259.787 819.446 259.787 819.446 259.787C819.446 259.787 819.446 259.786 819.446 259.786C819.446 259.786 819.446 259.785 819.446 259.785C819.446 259.784 819.447 259.783 819.447 259.781C819.448 259.779 819.449 259.775 819.45 259.77C819.452 259.76 819.456 259.747 819.46 259.73C819.468 259.696 819.479 259.647 819.493 259.584C819.52 259.457 819.555 259.275 819.592 259.043C819.664 258.578 819.739 257.914 819.753 257.101L818.753 257.084C818.74 257.845 818.67 258.463 818.603 258.889C818.57 259.101 818.538 259.265 818.515 259.375C818.503 259.429 818.494 259.47 818.488 259.496C818.484 259.509 818.482 259.519 818.481 259.525C818.48 259.527 818.479 259.529 818.479 259.53C818.479 259.531 818.479 259.531 818.479 259.531C818.479 259.531 818.479 259.531 818.479 259.531C818.479 259.531 818.479 259.531 818.479 259.531C818.479 259.531 818.479 259.531 818.479 259.531C818.479 259.531 818.479 259.53 818.962 259.659ZM827.469 274.057C827.469 268.135 825.418 264.414 823.332 262.172C822.293 261.056 821.252 260.313 820.468 259.849C820.076 259.616 819.747 259.453 819.513 259.347C819.396 259.294 819.303 259.255 819.238 259.229C819.205 259.216 819.179 259.206 819.161 259.199C819.151 259.195 819.144 259.193 819.139 259.191C819.136 259.19 819.134 259.189 819.132 259.188C819.131 259.188 819.13 259.188 819.13 259.188C819.129 259.187 819.129 259.187 819.129 259.187C819.128 259.187 819.128 259.187 818.962 259.659C818.797 260.131 818.796 260.13 818.796 260.13C818.796 260.13 818.796 260.13 818.796 260.13C818.796 260.13 818.796 260.13 818.796 260.13C818.796 260.13 818.797 260.13 818.798 260.131C818.8 260.132 818.804 260.133 818.81 260.135C818.822 260.14 818.841 260.147 818.867 260.158C818.919 260.178 818.997 260.211 819.099 260.257C819.304 260.35 819.6 260.497 819.958 260.709C820.675 261.134 821.637 261.819 822.599 262.853C824.516 264.913 826.469 268.392 826.469 274.057H827.469ZM811.569 283.772C811.509 284.268 811.509 284.268 811.509 284.268C811.51 284.268 811.51 284.268 811.51 284.268C811.511 284.268 811.512 284.268 811.513 284.268C811.515 284.269 811.519 284.269 811.523 284.27C811.531 284.271 811.543 284.272 811.559 284.274C811.59 284.277 811.636 284.282 811.694 284.287C811.811 284.299 811.981 284.314 812.197 284.328C812.628 284.357 813.242 284.386 813.977 284.383C815.445 284.377 817.414 284.247 819.392 283.744C821.367 283.241 823.387 282.356 824.917 280.815C826.46 279.261 827.469 277.076 827.469 274.057H826.469C826.469 276.83 825.552 278.756 824.208 280.11C822.85 281.477 821.02 282.297 819.145 282.775C817.274 283.251 815.393 283.378 813.973 283.383C813.265 283.386 812.676 283.358 812.265 283.331C812.059 283.317 811.899 283.303 811.79 283.292C811.736 283.287 811.695 283.283 811.668 283.28C811.654 283.278 811.644 283.277 811.638 283.276C811.635 283.276 811.632 283.276 811.631 283.275C811.63 283.275 811.63 283.275 811.63 283.275C811.629 283.275 811.629 283.275 811.629 283.275C811.629 283.275 811.63 283.275 811.569 283.772ZM809.047 268.827L811.074 283.838L812.065 283.705L810.038 268.693L809.047 268.827ZM801.57 261.073C805.477 261.771 808.493 264.9 809.047 268.83L810.038 268.69C809.423 264.332 806.078 260.862 801.745 260.088L801.57 261.073ZM796.412 260.151L801.57 261.073L801.745 260.088L796.588 259.167L796.412 260.151ZM355.416 425.441C332.528 432.98 310.346 435.561 288.14 428.84L287.85 429.797C310.319 436.598 332.724 433.968 355.729 426.391L355.416 425.441ZM403.181 436.942C383.721 438.924 367.84 434.653 355.876 425.519L355.269 426.314C367.47 435.629 383.617 439.94 403.282 437.937L403.181 436.942ZM418.786 435.763C412.797 436.162 407.146 436.538 403.181 436.942L403.282 437.937C407.225 437.535 412.856 437.16 418.853 436.761L418.786 435.763ZM418.787 435.763L418.786 435.763L418.853 436.761L418.853 436.761L418.787 435.763ZM418.79 435.763L418.79 435.763L418.85 436.761L418.851 436.761L418.79 435.763ZM420.608 435.641L418.787 435.763L418.854 436.761L420.675 436.639L420.608 435.641ZM436.412 434.353C432.228 434.859 426.088 435.275 420.608 435.641L420.675 436.639C426.145 436.273 432.316 435.856 436.532 435.346L436.412 434.353ZM462.745 435.095C454.553 435.104 440.97 434.545 436.494 434.35L436.45 435.349C440.922 435.543 454.528 436.104 462.746 436.095L462.745 435.095ZM477.492 481.045L463.223 435.446L462.269 435.745L476.537 481.343L477.492 481.045ZM418.947 499.888L477.164 481.671L476.865 480.717L418.649 498.934L418.947 499.888ZM403.653 452.684L418.321 499.56L419.275 499.262L404.607 452.386L403.653 452.684ZM387.122 459.589L404.309 453.002L403.951 452.068L386.764 458.656L387.122 459.589ZM353.782 474.214L387.144 459.58L386.742 458.665L353.38 473.298L353.782 474.214ZM352.388 474.868C352.862 474.655 353.333 474.434 353.801 474.205L353.361 473.307C352.903 473.531 352.442 473.748 351.978 473.956L352.388 474.868ZM352.387 474.869L352.388 474.869L351.979 473.956L351.978 473.956L352.387 474.869ZM304.169 468.226C316.769 478.845 335.115 482.637 352.387 474.869L351.977 473.957C335.079 481.557 317.14 477.85 304.814 467.462L304.169 468.226ZM287.496 429.291C286.66 444.551 293.064 458.867 304.169 468.226L304.814 467.462C293.948 458.303 287.676 444.29 288.494 429.346L287.496 429.291ZM404.597 387.644C417.175 383.812 430.076 386.317 440.006 393.226L440.577 392.405C430.408 385.33 417.19 382.762 404.306 386.687L404.597 387.644ZM403.571 387.956L404.597 387.644L404.306 386.687L403.28 387L403.571 387.956ZM387.726 394.031L403.604 387.945L403.246 387.011L387.368 393.097L387.726 394.031ZM388.047 399.404V393.564H387.047V399.404H388.047ZM399.331 399.137C394.563 399.623 390.737 399.472 387.636 398.912L387.458 399.896C390.669 400.476 394.592 400.625 399.432 400.132L399.331 399.137ZM416.151 397.854C410.373 398.238 404.009 398.661 399.331 399.137L399.432 400.132C404.089 399.658 410.433 399.236 416.218 398.852L416.151 397.854ZM416.159 397.853L416.151 397.854L416.218 398.852L416.226 398.851L416.159 397.853ZM416.165 397.853L416.163 397.853L416.223 398.851L416.224 398.851L416.165 397.853ZM416.196 397.851L416.161 397.853L416.228 398.851L416.262 398.849L416.196 397.851ZM418.074 397.726C417.457 397.767 416.83 397.809 416.196 397.851L416.262 398.849C416.896 398.807 417.523 398.765 418.14 398.724L418.074 397.726ZM429.274 396.897C426.527 397.146 422.67 397.419 418.074 397.726L418.14 398.724C422.735 398.417 426.604 398.143 429.364 397.893L429.274 396.897ZM428.821 397.445L428.824 397.47L429.813 397.32L429.809 397.295L428.821 397.445ZM440.109 392.35C437.111 393.527 434.363 394.667 432.364 395.513C431.365 395.936 430.552 396.286 429.99 396.53C429.708 396.652 429.489 396.747 429.341 396.812C429.266 396.845 429.209 396.87 429.171 396.887C429.152 396.895 429.138 396.901 429.128 396.906C429.123 396.908 429.119 396.909 429.117 396.911C429.116 396.911 429.115 396.912 429.114 396.912C429.114 396.912 429.113 396.912 429.113 396.912C429.113 396.912 429.113 396.912 429.113 396.912C429.113 396.912 429.113 396.912 429.315 397.37C429.517 397.827 429.517 397.827 429.517 397.827C429.517 397.827 429.517 397.827 429.517 397.827C429.517 397.827 429.517 397.827 429.518 397.827C429.518 397.826 429.519 397.826 429.52 397.826C429.523 397.824 429.526 397.823 429.531 397.821C429.541 397.817 429.555 397.81 429.574 397.802C429.611 397.785 429.668 397.761 429.742 397.728C429.889 397.664 430.107 397.569 430.387 397.447C430.948 397.204 431.757 396.856 432.754 396.434C434.747 395.59 437.487 394.454 440.474 393.281L440.109 392.35ZM767.671 401.929C768.149 408.161 771.855 413.584 777.271 416.342L777.725 415.451C772.615 412.85 769.119 407.733 768.669 401.853L767.671 401.929ZM767.091 394.346L767.671 401.929L768.669 401.853L768.088 394.27L767.091 394.346ZM749.591 387.945L767.411 394.775L767.768 393.841L749.948 387.011L749.591 387.945ZM748.597 387.644L749.624 387.956L749.915 387L748.889 386.687L748.597 387.644ZM696.96 416.461C702.826 394.063 726.225 380.829 748.597 387.644L748.889 386.687C725.971 379.706 702.002 393.262 695.992 416.208L696.96 416.461ZM692.075 432.072L696.953 416.484L695.999 416.185L691.121 431.774L692.075 432.072ZM692.817 432.117C692.585 431.964 692.265 431.755 691.867 431.502L691.329 432.344C691.722 432.596 692.039 432.802 692.268 432.952L692.817 432.117ZM777.161 415.527C766.668 425.095 743.92 434.506 692.567 432.035L692.518 433.034C743.961 435.509 767.044 426.105 777.835 416.266L777.161 415.527ZM681.372 462.93L675.703 481.045L676.658 481.343L682.326 463.228L681.372 462.93ZM692.409 461.07C690.537 461.372 686.535 461.994 681.787 462.583L681.91 463.575C686.674 462.984 690.689 462.361 692.568 462.057L692.409 461.07ZM746.954 458.519C731.853 461.087 713.86 462.019 692.511 461.064L692.466 462.063C713.867 463.02 731.934 462.088 747.122 459.505L746.954 458.519ZM734.874 499.56L747.515 459.161L746.561 458.863L733.92 499.262L734.874 499.56ZM676.031 481.671L734.247 499.888L734.546 498.934L676.33 480.717L676.031 481.671ZM759.052 456.898L766.073 459.589L766.431 458.656L759.41 455.965L759.052 456.898ZM804.829 427.961C795.47 440.659 780.891 450.339 759.106 455.947L759.356 456.916C781.312 451.263 796.11 441.476 805.634 428.554L804.829 427.961ZM806.823 425.087C806.194 426.051 805.53 427.009 804.829 427.961L805.634 428.555C806.347 427.587 807.022 426.613 807.66 425.633L806.823 425.087ZM866.92 429.738C847.87 436.491 827.672 431.309 807.393 424.883L807.091 425.837C827.347 432.255 847.851 437.558 867.254 430.68L866.92 429.738ZM867.406 437.83L867.587 430.221L866.588 430.197L866.406 437.806L867.406 437.83ZM866.934 440.361L867.398 437.911L866.415 437.725L865.952 440.175L866.934 440.361ZM799.384 474.201C827.416 487.953 861.087 471.28 866.934 440.361L865.952 440.175C860.228 470.443 827.266 486.765 799.825 473.303L799.384 474.201ZM766.051 459.58L799.403 474.21L799.805 473.294L766.453 458.665L766.051 459.58ZM679.897 505.177C679.423 504.894 678.809 505.051 678.527 505.525L679.386 506.036L679.386 506.036L679.897 505.177ZM685.548 508.537L679.897 505.177L679.386 506.036L685.037 509.396L685.548 508.537ZM691.533 506.864L685.17 508.482L685.416 509.451L691.78 507.833L691.533 506.864ZM692.749 507.587C692.613 507.051 692.069 506.728 691.533 506.864L691.78 507.833L691.78 507.833L692.749 507.587ZM692.026 508.802C692.562 508.666 692.885 508.122 692.749 507.587L691.78 507.833L691.78 507.833L692.026 508.802ZM686.632 510.174L692.026 508.802L691.78 507.833L686.385 509.205L686.632 510.174ZM691.548 512.104L686.764 509.259L686.253 510.119L691.037 512.964L691.548 512.104ZM691.897 513.475C692.179 513 692.023 512.386 691.548 512.104L691.037 512.964L691.037 512.964L691.897 513.475ZM690.526 513.823C691.001 514.105 691.614 513.949 691.897 513.475L691.037 512.964L691.037 512.964L690.526 513.823ZM684.882 510.467L690.526 513.823L691.037 512.964L685.393 509.608L684.882 510.467ZM678.889 512.142L685.261 510.522L685.015 509.553L678.643 511.173L678.889 512.142ZM677.674 511.42C677.81 511.955 678.354 512.278 678.889 512.142L678.643 511.173L678.643 511.173L677.674 511.42ZM678.397 510.204C677.861 510.34 677.538 510.884 677.674 511.42L678.643 511.173L678.643 511.173L678.397 510.204ZM683.799 508.83L678.397 510.204L678.643 511.173L684.046 509.8L683.799 508.83ZM678.875 506.896L683.667 509.745L684.178 508.885L679.386 506.036L678.875 506.896ZM678.527 505.525C678.244 506 678.4 506.614 678.875 506.896L679.386 506.036L679.386 506.036L678.527 505.525ZM785.794 525.55H834.681V524.55H785.794V525.55ZM780.305 520.061C780.305 523.093 782.763 525.55 785.794 525.55V524.55C783.315 524.55 781.305 522.541 781.305 520.061H780.305ZM780.305 519.892V520.061H781.305V519.892H780.305ZM839.671 519.392H780.805V520.392H839.671V519.392ZM840.171 520.061V519.892H839.171V520.061H840.171ZM834.681 525.55C837.713 525.55 840.171 523.093 840.171 520.061H839.171C839.171 522.541 837.161 524.55 834.681 524.55V525.55ZM668.854 525.549H713.904V524.549H668.854V525.549ZM663.365 520.06C663.365 523.091 665.822 525.549 668.854 525.549V524.549C666.375 524.549 664.365 522.539 664.365 520.06H663.365ZM718.894 519.56H663.865V520.56H718.894V519.56ZM713.904 525.549C716.936 525.549 719.394 523.091 719.394 520.06H718.394C718.394 522.539 716.384 524.549 713.904 524.549V525.549ZM363.564 524.549H318.513V525.549H363.564V524.549ZM368.053 520.06C368.053 522.539 366.043 524.549 363.564 524.549V525.549C366.595 525.549 369.053 523.091 369.053 520.06L368.053 520.06ZM313.524 520.56H368.553V519.56H313.524V520.56ZM318.513 524.549C316.034 524.549 314.024 522.539 314.024 520.06H313.024C313.024 523.091 315.482 525.549 318.513 525.549V524.549ZM484.341 524.549H439.29V525.549H484.341V524.549ZM488.83 520.06C488.83 522.539 486.82 524.549 484.341 524.549V525.549C487.372 525.549 489.83 523.091 489.83 520.06H488.83ZM434.301 520.56H489.33V519.56H434.301V520.56ZM439.29 524.549C436.811 524.549 434.801 522.539 434.801 520.06H433.801C433.801 523.091 436.259 525.549 439.29 525.549V524.549ZM797.844 506.368L797.844 506.368L798.355 505.509C797.88 505.226 797.266 505.383 796.984 505.857L797.844 506.368ZM797.844 506.368L797.844 506.368L796.984 505.857C796.702 506.332 796.858 506.946 797.333 507.228L797.844 506.368ZM802.631 509.215L797.844 506.368L797.333 507.228L802.12 510.074L802.631 509.215ZM797.101 511.501L802.499 510.129L802.252 509.16L796.855 510.532L797.101 511.501ZM797.101 511.501L797.101 511.501L796.855 510.532C796.319 510.668 795.996 511.212 796.132 511.748L797.101 511.501ZM797.101 511.501L797.101 511.501L796.132 511.748C796.268 512.283 796.812 512.607 797.348 512.47L797.101 511.501ZM803.468 509.883L797.101 511.501L797.347 512.47L803.714 510.852L803.468 509.883ZM809.495 513.296L803.846 509.937L803.335 510.797L808.984 514.155L809.495 513.296ZM809.495 513.295L809.495 513.296L808.984 514.155C809.458 514.437 810.072 514.281 810.354 513.807L809.495 513.295ZM809.495 513.296L809.495 513.296L810.354 513.807C810.636 513.332 810.48 512.718 810.006 512.436L809.495 513.296ZM804.706 510.448L809.495 513.296L810.006 512.436L805.217 509.589L804.706 510.448ZM810.238 508.161L804.838 509.534L805.085 510.503L810.484 509.13L810.238 508.161ZM810.238 508.161L810.238 508.161L810.484 509.13C811.02 508.994 811.343 508.45 811.207 507.915L810.238 508.161ZM810.238 508.161L810.238 508.161L811.207 507.915C811.071 507.38 810.527 507.056 809.991 507.192L810.238 508.161ZM803.869 509.78L810.238 508.161L809.991 507.192L803.623 508.811L803.869 509.78ZM797.844 506.368L803.49 509.726L804.002 508.866L798.355 505.509L797.844 506.368ZM551.757 306.342L554.76 294.29L553.79 294.049L550.787 306.101L551.757 306.342ZM548.727 308.164C550.066 308.498 551.423 307.682 551.757 306.342L550.787 306.101C550.586 306.904 549.772 307.394 548.968 307.193L548.727 308.164ZM540.226 306.046L548.727 308.164L548.968 307.193L540.468 305.075L540.226 306.046ZM538.405 303.015C538.071 304.355 538.886 305.712 540.226 306.046L540.468 305.075C539.664 304.875 539.175 304.061 539.375 303.257L538.405 303.015ZM541.408 290.963L538.405 303.015L539.375 303.257L542.378 291.205L541.408 290.963ZM544.438 289.142C543.098 288.808 541.742 289.624 541.408 290.963L542.378 291.205C542.578 290.401 543.392 289.912 544.196 290.112L544.438 289.142ZM552.938 291.26L544.438 289.142L544.196 290.112L552.697 292.23L552.938 291.26ZM554.76 294.29C555.094 292.951 554.278 291.594 552.938 291.26L552.697 292.23C553.501 292.431 553.99 293.245 553.79 294.049L554.76 294.29ZM575.178 299.381L572.175 311.433L573.145 311.674L576.148 299.622L575.178 299.381ZM574.085 297.562C574.889 297.763 575.378 298.577 575.178 299.381L576.148 299.622C576.482 298.283 575.666 296.926 574.327 296.592L574.085 297.562ZM565.584 295.444L574.085 297.562L574.327 296.592L565.826 294.474L565.584 295.444ZM563.766 296.537C563.967 295.733 564.781 295.244 565.584 295.444L565.826 294.474C564.486 294.14 563.13 294.956 562.796 296.295L563.766 296.537ZM560.763 308.589L563.766 296.537L562.796 296.295L559.793 308.347L560.763 308.589ZM561.856 310.407C561.052 310.207 560.563 309.393 560.763 308.589L559.793 308.347C559.459 309.687 560.275 311.044 561.614 311.378L561.856 310.407ZM570.357 312.526L561.856 310.407L561.614 311.378L570.115 313.496L570.357 312.526ZM572.175 311.433C571.974 312.237 571.16 312.726 570.357 312.526L570.115 313.496C571.454 313.83 572.811 313.014 573.145 311.674L572.175 311.433ZM539.482 319.482L530.543 355.358L531.513 355.6L540.453 319.723L539.482 319.482ZM542.715 319.772L540.088 319.117L539.847 320.088L542.473 320.742L542.715 319.772ZM534.14 356.255L543.079 320.378L542.109 320.136L533.169 356.013L534.14 356.255ZM530.907 355.964L533.533 356.619L533.775 355.649L531.149 354.994L530.907 355.964ZM526.635 354.385L534.019 324.751L533.049 324.509L525.665 354.143L526.635 354.385ZM528.898 354.433L526.271 353.779L526.029 354.749L528.656 355.404L528.898 354.433ZM535.675 325.164L528.292 354.797L529.262 355.039L536.646 325.406L535.675 325.164ZM533.413 325.116L536.04 325.77L536.281 324.8L533.655 324.145L533.413 325.116ZM519.506 403.788L528.446 367.911L527.475 367.669L518.536 403.546L519.506 403.788ZM521.768 403.836L519.142 403.182L518.9 404.152L521.526 404.806L521.768 403.836ZM530.102 368.323L521.162 404.2L522.133 404.442L531.072 368.565L530.102 368.323ZM527.84 368.275L530.466 368.93L530.708 367.959L528.081 367.305L527.84 368.275ZM514.628 402.572L522.012 372.939L521.042 372.697L513.658 402.33L514.628 402.572ZM516.891 402.621L514.264 401.966L514.022 402.936L516.649 403.591L516.891 402.621ZM523.668 373.351L516.284 402.985L517.255 403.227L524.639 373.593L523.668 373.351ZM521.406 373.303L524.033 373.957L524.274 372.987L521.648 372.333L521.406 373.303ZM532.353 368.884L523.413 404.761L524.384 405.003L533.323 369.126L532.353 368.884ZM535.585 369.175L532.959 368.52L532.717 369.49L535.344 370.145L535.585 369.175ZM527.01 405.657L535.95 369.781L534.979 369.539L526.04 405.416L527.01 405.657ZM523.778 405.367L526.404 406.022L526.646 405.051L524.019 404.397L523.778 405.367ZM536.391 356.816L545.33 320.939L544.36 320.697L535.42 356.574L536.391 356.816ZM538.653 356.864L536.026 356.21L535.785 357.18L538.411 357.834L538.653 356.864ZM546.986 321.352L538.047 357.228L539.017 357.47L547.957 321.593L546.986 321.352ZM544.724 321.303L547.351 321.958L547.592 320.987L544.966 320.333L544.724 321.303ZM542.43 378.026L535.046 407.66L536.017 407.902L543.4 378.268L542.43 378.026ZM545.663 378.316L543.036 377.662L542.794 378.632L545.421 379.287L545.663 378.316ZM538.643 408.556L546.027 378.922L545.057 378.681L537.673 408.314L538.643 408.556ZM535.411 408.266L538.037 408.92L538.279 407.95L535.652 407.296L535.411 408.266ZM540.894 409.117L549.834 373.24L548.863 372.998L539.924 408.875L540.894 409.117ZM543.156 409.165L540.53 408.511L540.288 409.481L542.915 410.136L543.156 409.165ZM551.49 373.653L542.55 409.53L543.521 409.771L552.46 373.895L551.49 373.653ZM549.228 373.605L551.854 374.259L552.096 373.289L549.469 372.634L549.228 373.605ZM553.741 374.214L544.802 410.091L545.772 410.332L554.711 374.456L553.741 374.214ZM556.974 374.504L554.347 373.85L554.105 374.82L556.732 375.474L556.974 374.504ZM548.398 410.987L557.338 375.11L556.368 374.868L547.428 410.745L548.398 410.987ZM545.166 410.697L547.792 411.351L548.034 410.381L545.408 409.726L545.166 410.697ZM548.024 359.714L555.407 330.081L554.437 329.839L547.053 359.472L548.024 359.714ZM550.286 359.763L547.659 359.108L547.418 360.078L550.044 360.733L550.286 359.763ZM557.064 330.493L549.68 360.127L550.65 360.369L558.034 330.735L557.064 330.493ZM554.801 330.445L557.428 331.099L557.67 330.129L555.043 329.475L554.801 330.445ZM560.87 324.811L551.931 360.688L552.901 360.93L561.841 325.053L560.87 324.811ZM564.103 325.101L561.477 324.447L561.235 325.417L563.861 326.072L564.103 325.101ZM555.528 361.584L564.467 325.707L563.497 325.465L554.557 361.342L555.528 361.584ZM552.295 361.294L554.922 361.948L555.163 360.978L552.537 360.324L552.295 361.294ZM557.779 362.145L566.718 326.268L565.748 326.026L556.809 361.903L557.779 362.145ZM560.041 362.193L557.415 361.539L557.173 362.509L559.799 363.164L560.041 362.193ZM568.375 326.681L559.435 362.558L560.405 362.799L569.345 326.923L568.375 326.681ZM566.112 326.633L568.739 327.287L568.981 326.317L566.354 325.662L566.112 326.633Z" fill="#FFA64D"/>
<path d="M864.214 371.555L868.794 429.569C840.695 440.627 810.101 425.055 780.819 417.171C773.79 415.278 768.726 409.148 768.17 401.889L762.256 324.638C761.649 316.718 766.213 309.595 773.102 306.583C774.925 305.787 776.904 305.276 779.002 305.115L786.122 304.57C796.007 303.813 805.587 305.07 814.448 307.997C841.494 316.921 861.904 341.375 864.214 371.555Z" fill="#414042"/>
<path fill-rule="evenodd" clip-rule="evenodd" d="M745.97 462.425L749.065 452.535L766.252 459.123L799.604 473.752C802.226 475.038 804.897 476.055 807.591 476.817C815.372 485.5 822.105 493.07 822.105 493.07L785.67 506.721L745.97 462.425Z" fill="#414042"/>
<path d="M782.282 304.864C780.736 304.989 779.253 305.32 777.84 305.812V305.249C778.225 305.186 778.609 305.141 779.002 305.115L782.282 304.864Z" fill="#6C6E70"/>
<path d="M804.735 368.761C802.623 394.077 814.83 453.079 691.379 446.993" stroke="#8A5E3C" stroke-width="29" stroke-miterlimit="10" stroke-linecap="round"/>
<path d="M818.962 283.772V309.664C817.478 309.057 815.977 308.503 814.448 308.002C805.591 305.07 796.01 303.81 786.125 304.57L782.282 304.865L779.002 305.115C778.609 305.142 778.225 305.187 777.84 305.249V283.772H818.962V283.772Z" fill="#E3E3E3"/>
<path d="M429.315 397.372C429.315 397.372 460.405 383.644 460.416 388.186C460.428 392.729 456.072 396.299 456.072 396.299C456.072 396.299 486.09 399.013 486.459 403.422C486.827 407.83 479.376 434.58 467.658 435.47C460.927 435.981 434.994 434.786 434.994 434.786L429.315 397.372Z" fill="#FFC3B8"/>
<path d="M692.971 432.819C692.971 432.819 675.097 420.697 665.997 421.961C661.91 422.528 669.986 432.019 669.986 432.019C669.986 432.019 636.538 439.02 636.203 443.024C635.869 447.029 645.675 459.571 655.607 463.482C663.388 466.546 693.628 461.375 693.628 461.375L692.971 432.819Z" fill="#8A5E3C"/>
<path d="M827.816 370.723C829.642 348.843 825.955 329.695 825.529 327.583C821.207 306.183 775 315.513 779.321 336.914L779.309 336.853C779.337 336.997 782.122 351.437 780.84 366.803L827.816 370.723Z" fill="#F0F1F1"/>
</svg>