<svg class="illustration" width="1155" height="700" viewBox="0 0 1155 700" fill="none" xmlns="http://www.w3.org/2000/svg">
<rect x="376" y="143" width="245" height="486" rx="22" fill="#E7ECEF"/>
<rect x="390" y="215" width="105" height="101" rx="10" fill="white" fill-opacity="0.75"/>
<rect x="390" y="330" width="105" height="6" rx="3" fill="white"/>
<rect x="390" y="339" width="76" height="6" rx="3" fill="white"/>
<rect x="505" y="215" width="105" height="101" rx="10" fill="white" fill-opacity="0.75"/>
<rect x="505" y="330" width="105" height="6" rx="3" fill="white"/>
<rect x="505" y="339" width="76" height="6" rx="3" fill="white"/>
<rect x="390" y="369" width="105" height="101" rx="10" fill="white" fill-opacity="0.75"/>
<rect x="390" y="484" width="105" height="6" rx="3" fill="white"/>
<rect x="390" y="493" width="76" height="6" rx="3" fill="white"/>
<rect x="505" y="369" width="105" height="101" rx="10" fill="white" fill-opacity="0.75"/>
<rect x="505" y="484" width="105" height="6" rx="3" fill="white"/>
<rect x="505" y="493" width="76" height="6" rx="3" fill="white"/>
<rect x="390" y="523" width="115" height="38" rx="8" fill="white"/>
<rect x="511" y="523" width="99" height="38" rx="8" fill="white" fill-opacity="0.41"/>
<path d="M327 631H864.5" stroke="black"/>
<path fill-rule="evenodd" clip-rule="evenodd" d="M608.494 240.746V261.549V268.322H628.329L626.878 261.549L625.426 254.776L623.793 247.426C639.598 249.746 637.239 230.479 633.167 217.04C626.587 202.72 610.429 204.945 606.559 215.105C603.258 222.117 605.703 230.771 607.595 237.467C607.922 238.625 608.232 239.724 608.494 240.746ZM543.665 440.551C538.247 442.874 538.021 442.648 541.73 434.262L543.665 425.07L543.665 410.556H554.792V425.07C554.792 425.07 559.63 432.689 559.63 436.681C559.63 444.442 559.63 447.024 558.352 448.133C557.715 448.686 556.76 448.873 555.329 449.154C555.157 449.187 554.979 449.222 554.792 449.26C549.572 450.304 548.667 448.262 546.931 444.346L546.931 444.346C546.435 443.225 545.87 441.951 545.116 440.551H543.665ZM704.116 288.857C702.915 281.48 701.534 272.992 704.768 275.579C706.959 277.332 707.289 279.116 707.515 280.334C707.687 281.267 707.798 281.868 708.638 281.868C709.122 272.515 712.121 257.775 714.443 260.097C716.234 261.888 715.551 266.955 714.923 271.621C714.736 273.008 714.554 274.359 714.443 275.579C716.379 274.45 723.829 277.611 726.538 281.868C729.925 287.19 720.733 297.349 718.798 297.833C717.839 298.073 717.388 298.757 716.915 299.473C716.624 299.914 716.325 300.367 715.895 300.736L712.992 307.993L708.638 322.507L697.511 314.282L704.768 292.995C704.582 291.721 704.352 290.311 704.116 288.857Z" fill="white"/>
<path d="M608.494 240.746H608.977V240.685L608.962 240.626L608.494 240.746ZM608.494 268.322H608.01V268.806H608.494V268.322ZM628.329 268.322V268.806H628.927L628.802 268.221L628.329 268.322ZM626.878 261.549L627.351 261.447V261.447L626.878 261.549ZM625.426 254.776L625.899 254.674L625.899 254.671L625.426 254.776ZM623.793 247.426L623.863 246.948L623.168 246.846L623.321 247.531L623.793 247.426ZM633.167 217.04L633.63 216.9L633.62 216.868L633.606 216.838L633.167 217.04ZM606.559 215.105L606.996 215.311L607.004 215.294L607.011 215.277L606.559 215.105ZM607.595 237.467L607.129 237.599V237.599L607.595 237.467ZM541.73 434.262L542.172 434.458L542.193 434.411L542.203 434.362L541.73 434.262ZM543.665 440.551V440.068H543.566L543.475 440.107L543.665 440.551ZM543.665 425.07L544.139 425.17L544.149 425.121V425.07H543.665ZM543.665 410.556V410.073H543.181L543.181 410.556H543.665ZM554.792 410.556H555.276V410.073H554.792V410.556ZM554.792 425.07H554.309V425.211L554.384 425.329L554.792 425.07ZM558.352 448.133L558.035 447.768L558.352 448.133ZM555.329 449.154L555.236 448.679H555.236L555.329 449.154ZM554.792 449.26L554.887 449.734H554.887L554.792 449.26ZM546.931 444.346L547.374 444.15L547.37 444.141L546.931 444.346ZM546.931 444.346L546.489 444.542L546.493 444.551L546.931 444.346ZM545.116 440.551L545.542 440.322L545.405 440.068H545.116V440.551ZM704.768 275.579L704.465 275.957L704.768 275.579ZM704.116 288.857L704.593 288.78L704.116 288.857ZM707.515 280.334L707.99 280.246L707.515 280.334ZM708.638 281.868V282.352H709.097L709.121 281.893L708.638 281.868ZM714.443 260.097L714.785 259.755L714.443 260.097ZM714.923 271.621L715.402 271.686V271.686L714.923 271.621ZM714.443 275.579L713.962 275.535L713.877 276.469L714.687 275.997L714.443 275.579ZM726.538 281.868L726.13 282.128L726.538 281.868ZM718.798 297.833L718.915 298.303L718.798 297.833ZM716.915 299.473L717.319 299.74L717.319 299.74L716.915 299.473ZM715.895 300.736L715.58 300.369L715.49 300.446L715.446 300.556L715.895 300.736ZM712.992 307.993L712.543 307.813L712.535 307.833L712.529 307.854L712.992 307.993ZM708.638 322.507L708.35 322.896L708.904 323.304L709.101 322.646L708.638 322.507ZM697.511 314.282L697.053 314.126L696.939 314.461L697.223 314.671L697.511 314.282ZM704.768 292.995L705.225 293.151L705.263 293.041L705.246 292.925L704.768 292.995ZM608.977 261.549V240.746H608.01V261.549H608.977ZM608.977 268.322V261.549H608.01V268.322H608.977ZM628.329 267.838H608.494V268.806H628.329V267.838ZM626.405 261.65L627.856 268.423L628.802 268.221L627.351 261.447L626.405 261.65ZM624.953 254.877L626.405 261.65L627.351 261.447L625.899 254.674L624.953 254.877ZM623.321 247.531L624.954 254.881L625.899 254.671L624.265 247.321L623.321 247.531ZM632.704 217.18C634.736 223.885 636.316 231.977 635.455 238.075C635.025 241.12 633.995 243.599 632.18 245.183C630.379 246.754 627.719 247.514 623.863 246.948L623.723 247.905C627.769 248.499 630.742 247.721 632.816 245.912C634.876 244.115 635.966 241.373 636.413 238.211C637.305 231.895 635.671 223.634 633.63 216.9L632.704 217.18ZM607.011 215.277C610.712 205.559 626.308 203.271 632.727 217.242L633.606 216.838C626.866 202.169 610.145 204.331 606.106 214.933L607.011 215.277ZM608.06 237.336C607.113 233.982 606.041 230.182 605.611 226.351C605.181 222.521 605.399 218.705 606.996 215.311L606.121 214.899C604.418 218.517 604.209 222.534 604.649 226.459C605.089 230.381 606.185 234.257 607.129 237.599L608.06 237.336ZM608.962 240.626C608.699 239.597 608.387 238.492 608.06 237.336L607.129 237.599C607.457 238.758 607.765 239.851 608.025 240.866L608.962 240.626ZM541.288 434.066C540.361 436.16 539.673 437.763 539.25 438.946C539.039 439.538 538.888 440.041 538.808 440.459C538.731 440.864 538.708 441.251 538.816 441.575C538.872 441.746 538.967 441.904 539.11 442.03C539.252 442.154 539.419 442.228 539.589 442.265C539.912 442.337 540.286 442.29 540.668 442.198C541.442 442.012 542.513 441.572 543.856 440.996L543.475 440.107C542.109 440.692 541.119 441.094 540.442 441.257C540.099 441.34 539.901 441.344 539.799 441.321C539.777 441.316 539.764 441.311 539.757 441.308C539.754 441.306 539.752 441.305 539.751 441.304C539.75 441.304 539.75 441.303 539.75 441.303C539.75 441.303 539.749 441.303 539.749 441.303C539.749 441.303 539.749 441.303 539.749 441.303C539.749 441.303 539.749 441.303 539.749 441.303C539.749 441.303 539.748 441.302 539.747 441.3C539.745 441.296 539.74 441.287 539.734 441.27C539.706 441.186 539.691 440.999 539.759 440.64C539.825 440.294 539.957 439.844 540.161 439.272C540.57 438.127 541.244 436.557 542.172 434.458L541.288 434.066ZM543.192 424.97L541.257 434.163L542.203 434.362L544.139 425.17L543.192 424.97ZM543.181 410.556L543.181 425.07H544.149L544.149 410.556H543.181ZM554.792 410.073H543.665V411.04H554.792V410.073ZM555.276 425.07V410.556H554.309V425.07H555.276ZM560.114 436.681C560.114 435.6 559.79 434.314 559.33 433.021C558.867 431.72 558.253 430.373 557.643 429.161C557.033 427.948 556.423 426.862 555.966 426.079C555.737 425.688 555.547 425.371 555.413 425.153C555.346 425.043 555.293 424.958 555.257 424.901C555.239 424.872 555.225 424.849 555.216 424.834C555.211 424.827 555.207 424.821 555.205 424.817C555.204 424.815 555.203 424.814 555.202 424.813C555.202 424.812 555.201 424.812 555.201 424.811C555.201 424.811 555.201 424.811 555.201 424.811C555.201 424.811 555.201 424.811 554.792 425.07C554.384 425.329 554.384 425.329 554.384 425.329C554.384 425.329 554.384 425.33 554.384 425.33C554.384 425.33 554.384 425.33 554.385 425.33C554.385 425.331 554.386 425.333 554.387 425.334C554.389 425.338 554.393 425.343 554.397 425.35C554.406 425.364 554.419 425.385 554.436 425.413C554.471 425.468 554.522 425.551 554.588 425.658C554.718 425.872 554.906 426.182 555.131 426.567C555.581 427.338 556.18 428.406 556.779 429.596C557.379 430.788 557.974 432.095 558.418 433.345C558.866 434.604 559.146 435.766 559.146 436.681H560.114ZM558.669 448.498C559.463 447.809 559.791 446.71 559.952 444.945C560.114 443.163 560.114 440.55 560.114 436.681H559.146C559.146 440.573 559.146 443.131 558.988 444.858C558.83 446.601 558.519 447.348 558.035 447.768L558.669 448.498ZM555.422 449.628C556.13 449.49 556.753 449.368 557.279 449.209C557.809 449.047 558.279 448.837 558.669 448.498L558.035 447.768C557.788 447.982 557.461 448.142 556.998 448.283C556.529 448.425 555.96 448.537 555.236 448.679L555.422 449.628ZM554.887 449.734C555.072 449.697 555.25 449.662 555.422 449.628L555.236 448.679C555.064 448.713 554.885 448.748 554.698 448.785L554.887 449.734ZM546.489 444.542C546.92 445.515 547.312 446.4 547.737 447.151C548.163 447.904 548.639 448.553 549.255 449.042C550.517 450.043 552.225 450.267 554.887 449.734L554.698 448.785C552.139 449.297 550.785 449.021 549.856 448.284C549.376 447.903 548.974 447.373 548.579 446.675C548.183 445.974 547.81 445.135 547.374 444.15L546.489 444.542ZM546.493 444.551L546.493 444.551L547.37 444.141L547.369 444.141L546.493 444.551ZM544.69 440.781C545.434 442.162 545.992 443.421 546.489 444.542L547.374 444.15C546.877 443.03 546.306 441.74 545.542 440.322L544.69 440.781ZM543.665 441.035H545.116V440.068H543.665V441.035ZM705.07 275.201C704.64 274.857 704.2 274.622 703.764 274.62C703.27 274.618 702.923 274.91 702.711 275.288C702.51 275.646 702.401 276.122 702.343 276.645C702.284 277.177 702.272 277.805 702.296 278.498C702.388 281.257 703.04 285.26 703.638 288.935L704.593 288.78C703.991 285.078 703.352 281.148 703.263 278.465C703.24 277.798 703.252 277.221 703.305 276.752C703.358 276.273 703.449 275.951 703.555 275.761C703.649 275.593 703.716 275.588 703.76 275.588C703.863 275.588 704.087 275.654 704.465 275.957L705.07 275.201ZM707.99 280.246C707.878 279.637 707.73 278.831 707.316 277.951C706.9 277.066 706.222 276.123 705.07 275.201L704.465 275.957C705.504 276.788 706.088 277.614 706.441 278.363C706.796 279.118 706.926 279.814 707.039 280.422L707.99 280.246ZM708.638 281.384C708.485 281.384 708.405 281.357 708.363 281.334C708.324 281.313 708.286 281.28 708.245 281.209C708.142 281.031 708.083 280.745 707.99 280.246L707.039 280.422C707.119 280.856 707.202 281.338 707.407 281.693C707.521 281.889 707.679 282.064 707.902 282.185C708.122 282.304 708.371 282.352 708.638 282.352V281.384ZM714.785 259.755C714.587 259.557 714.343 259.409 714.056 259.376C713.768 259.342 713.504 259.433 713.283 259.577C712.865 259.85 712.508 260.37 712.194 260.984C711.551 262.238 710.933 264.202 710.381 266.491C709.273 271.084 708.398 277.137 708.155 281.843L709.121 281.893C709.361 277.246 710.228 271.252 711.322 266.718C711.87 264.443 712.467 262.573 713.055 261.425C713.356 260.837 713.618 260.514 713.811 260.388C713.895 260.333 713.935 260.336 713.945 260.337C713.958 260.338 714.01 260.348 714.101 260.439L714.785 259.755ZM715.402 271.686C715.715 269.361 716.048 266.896 716.074 264.787C716.087 263.731 716.023 262.743 715.834 261.892C715.646 261.045 715.323 260.293 714.785 259.755L714.101 260.439C714.459 260.797 714.722 261.35 714.89 262.102C715.056 262.851 715.119 263.757 715.106 264.775C715.081 266.813 714.759 269.215 714.443 271.557L715.402 271.686ZM714.925 275.623C715.035 274.416 715.215 273.075 715.402 271.686L714.443 271.557C714.257 272.941 714.074 274.303 713.962 275.535L714.925 275.623ZM726.946 281.608C725.525 279.374 722.896 277.47 720.411 276.268C719.163 275.664 717.926 275.226 716.864 275.012C716.333 274.905 715.834 274.852 715.391 274.867C714.954 274.881 714.537 274.964 714.2 275.161L714.687 275.997C714.834 275.911 715.073 275.846 715.424 275.834C715.77 275.822 716.191 275.864 716.673 275.961C717.637 276.155 718.795 276.561 719.99 277.139C722.391 278.3 724.842 280.104 726.13 282.128L726.946 281.608ZM718.915 298.303C719.264 298.215 719.689 297.945 720.122 297.608C720.573 297.257 721.094 296.784 721.645 296.221C722.748 295.096 723.993 293.589 725.069 291.928C726.144 290.27 727.066 288.435 727.5 286.654C727.933 284.875 727.89 283.091 726.946 281.608L726.13 282.128C726.88 283.306 726.958 284.788 726.559 286.425C726.161 288.061 725.299 289.794 724.258 291.402C723.218 293.006 722.014 294.462 720.954 295.544C720.424 296.085 719.936 296.527 719.528 296.845C719.1 297.177 718.815 297.33 718.68 297.364L718.915 298.303ZM717.319 299.74C717.802 299.008 718.162 298.491 718.915 298.303L718.68 297.364C717.517 297.655 716.974 298.506 716.511 299.207L717.319 299.74ZM716.21 301.103C716.699 300.683 717.033 300.173 717.319 299.74L716.511 299.207C716.215 299.655 715.951 300.051 715.58 300.369L716.21 301.103ZM713.441 308.172L716.344 300.916L715.446 300.556L712.543 307.813L713.441 308.172ZM709.101 322.646L713.455 308.132L712.529 307.854L708.175 322.367L709.101 322.646ZM697.223 314.671L708.35 322.896L708.925 322.117L697.798 313.893L697.223 314.671ZM704.31 292.839L697.053 314.126L697.969 314.438L705.225 293.151L704.31 292.839ZM703.638 288.935C703.875 290.39 704.104 291.796 704.289 293.065L705.246 292.925C705.06 291.647 704.83 290.232 704.593 288.78L703.638 288.935Z" fill="black"/>
<path d="M615.266 263.484L609.945 238.811L608.493 240.262V266.387L615.266 269.773V263.484Z" fill="black" fill-opacity="0.07"/>
<path d="M645.262 311.863L643.327 379.594H652.035C653.971 375.336 652.197 345.728 650.584 331.215C654.067 346.309 660.26 365.08 667.033 371.369L671.871 375.723L669.452 367.983C669.452 367.983 664.614 350.083 652.035 326.861C649.983 323.072 645.262 311.863 645.262 311.863Z" fill="black" fill-opacity="0.06"/>
<path d="M555.276 411.04L563.017 407.654C566.887 366.048 572.048 342.181 576.079 330.731V338.955V352.018V377.659L583.336 380.561L579.95 302.187L573.177 316.217C563.985 332.182 557.857 386.044 555.276 411.04Z" fill="black" fill-opacity="0.06"/>
<rect x="536.893" y="625.36" width="70.6335" height="4.83791" fill="black" fill-opacity="0.23"/>
<path d="M607.707 630.198L607.707 591.978V590.043H584.002V591.978C584.002 595.848 580.893 597.073 578.196 599.719C567.819 609.899 554.792 603.589 544.149 608.427C533.506 613.265 536.408 626.166 537.375 630.198H607.707Z" fill="#1E2884"/>
<path d="M628.813 630.682L628.813 592.462V590.527H653.307V592.462C653.307 596.332 656.307 598.579 659.004 601.226C669.381 611.406 681.728 604.073 692.371 608.911C703.014 613.749 701.65 626.65 700.682 630.682H628.813Z" fill="#1E2884"/>
<path d="M600.27 203.978C589.713 217.702 601.195 232.431 608.086 239.176H610.43C609.11 236.537 607.527 233.006 607.527 229.135C607.527 225.264 610.268 226.95 611.881 227.684C610.43 221.878 607.016 211.737 615.751 212.784C623.008 213.654 627.846 210.365 630.265 212.784C630.265 212.784 635.103 214.82 638.973 210.267C642.844 205.714 640.088 198.598 635.103 194.786C630.176 180.006 619.963 190.937 614.684 197.828C611.517 196.421 603.642 202.072 600.27 203.978Z" fill="#1E2884"/>
<path fill-rule="evenodd" clip-rule="evenodd" d="M571.242 268.322L607.042 260.581C617.879 267.161 626.072 263.323 628.813 260.581L663.646 276.063C664.033 280.707 675.418 315.411 681.546 333.15C684.98 322.741 690.742 305.619 694.327 295.898L692.673 293.963L695.092 286.222L697.511 288.641C697.898 290.576 710.896 306.219 717.347 313.798L719.766 316.701L717.347 322.023L714.847 320.088C713.45 323.413 712.072 326.755 710.707 330.065L710.706 330.068C699.512 357.213 689.213 382.188 676.708 378.143C661.263 373.146 655.202 349.807 650.514 331.757C650.21 330.584 649.911 329.434 649.616 328.312C653.397 343.579 652.23 365.432 651.578 377.634L651.551 378.143C638.005 383.948 595.593 380.561 576.08 378.143V329.763C571.435 338.278 565.759 380.723 563.017 408.138L561.566 420.716L534.474 422.651L532.055 410.557H534.474C534.474 367.015 555.922 300.413 571.242 268.322ZM537.263 625.36H536.893V630.198H607.526V625.36H607.526V592.462V581.335H583.821V592.462C583.821 595.352 582.087 596.767 580.086 598.4C579.407 598.954 578.698 599.532 578.015 600.203C571.858 606.243 565.342 606.308 558.838 606.372C554.381 606.416 549.929 606.46 545.601 608.427C535.367 613.079 536.315 621.161 537.263 625.36ZM629.781 626.327V592.946V581.818H653.486V592.946C653.486 595.836 655.219 597.25 657.221 598.883C657.899 599.437 658.609 600.016 659.292 600.686C665.449 606.727 671.964 606.791 678.469 606.855C682.926 606.899 687.378 606.943 691.705 608.911C701.94 613.563 700.992 621.645 700.044 625.843H700.414V630.681H629.781V626.327H629.781Z" fill="
#00801f"/>
<path d="M570.585 584.721C565.313 550.912 572.44 435.47 577.047 377.659C581.919 378.368 594.339 379.512 598.818 379.965C610.042 295.045 598.334 266.415 594.948 263L599.785 262.033C609.074 269.386 608.977 344.041 604.14 379.965C618.541 381.122 623.833 381.037 633.167 380.415C636.07 343.534 641.295 268.806 638.973 264.935L644.778 267.354C642.843 303.663 640.521 376.898 638.973 379.965C646.228 379.317 649.534 378.503 652.519 377.659L659.292 472.482L662.486 584.721H665.581L662.678 591.494H624.943L622.524 584.721H624.565L615.751 426.522L612.039 584.721H615.267L611.88 591.494H572.209L568.823 584.721H570.585Z" fill="white"/>
<path d="M570.585 584.721V585.205H571.15L571.063 584.647L570.585 584.721ZM577.047 377.659L577.117 377.18L576.606 377.106L576.565 377.62L577.047 377.659ZM598.818 379.965L598.769 380.446L599.236 380.494L599.297 380.028L598.818 379.965ZM594.948 263L594.853 262.526L593.971 262.702L594.604 263.341L594.948 263ZM599.785 262.033L600.086 261.653L599.91 261.514L599.691 261.558L599.785 262.033ZM604.14 379.965L603.66 379.901L603.592 380.406L604.101 380.447L604.14 379.965ZM633.167 380.415L633.199 380.898L633.617 380.87L633.649 380.453L633.167 380.415ZM638.973 264.935L639.159 264.489L637.801 263.923L638.558 265.184L638.973 264.935ZM644.778 267.354L645.261 267.38L645.279 267.039L644.964 266.908L644.778 267.354ZM638.973 379.965L638.541 379.747L638.148 380.524L639.016 380.447L638.973 379.965ZM652.519 377.659L653.001 377.624L652.959 377.031L652.387 377.193L652.519 377.659ZM659.292 472.482L659.775 472.468L659.775 472.458L659.774 472.447L659.292 472.482ZM662.486 584.721L662.002 584.735L662.015 585.205H662.486V584.721ZM665.581 584.721L666.026 584.912L666.315 584.237H665.581V584.721ZM662.678 591.494V591.978H662.997L663.123 591.685L662.678 591.494ZM624.943 591.494L624.487 591.657L624.602 591.978H624.943V591.494ZM622.524 584.721V584.237H621.837L622.068 584.884L622.524 584.721ZM624.565 584.721V585.205H625.077L625.048 584.694L624.565 584.721ZM615.751 426.522L616.234 426.495L615.267 426.51L615.751 426.522ZM612.039 584.721L611.555 584.71L611.544 585.205H612.039V584.721ZM615.267 584.721L615.699 584.938L616.05 584.237H615.267V584.721ZM611.88 591.494V591.978H612.179L612.313 591.711L611.88 591.494ZM572.209 591.494L571.777 591.711L571.91 591.978H572.209V591.494ZM568.823 584.721V584.237H568.04L568.39 584.938L568.823 584.721ZM571.063 584.647C568.436 567.799 568.896 530.539 570.595 490.211C572.293 449.905 575.226 406.598 577.53 377.697L576.565 377.62C574.261 406.53 571.327 449.85 569.628 490.17C567.93 530.468 567.462 567.834 570.107 584.796L571.063 584.647ZM576.978 378.137C581.863 378.849 594.305 379.994 598.769 380.446L598.867 379.484C594.374 379.029 581.974 377.887 577.117 377.18L576.978 378.137ZM599.297 380.028C604.913 337.542 604.795 309.114 602.843 290.866C601.866 281.743 600.431 275.158 599.021 270.631C598.316 268.367 597.617 266.613 596.981 265.311C596.351 264.019 595.77 263.142 595.291 262.659L594.604 263.341C594.972 263.712 595.498 264.477 596.112 265.735C596.721 266.984 597.404 268.691 598.097 270.918C599.485 275.373 600.91 281.894 601.881 290.969C603.823 309.12 603.947 337.468 598.338 379.902L599.297 380.028ZM595.042 263.475L599.88 262.507L599.691 261.558L594.853 262.526L595.042 263.475ZM599.485 262.412C599.993 262.814 600.499 263.472 600.991 264.401C601.481 265.325 601.943 266.492 602.376 267.882C603.242 270.662 603.977 274.293 604.586 278.578C605.804 287.145 606.51 298.268 606.776 310.296C607.308 334.351 606.075 361.97 603.66 379.901L604.619 380.03C607.042 362.036 608.276 334.365 607.744 310.274C607.477 298.228 606.769 287.063 605.544 278.442C604.931 274.133 604.188 270.444 603.3 267.594C602.856 266.169 602.373 264.942 601.846 263.948C601.321 262.958 600.739 262.171 600.086 261.653L599.485 262.412ZM604.101 380.447C618.523 381.606 623.839 381.521 633.199 380.898L633.135 379.932C623.827 380.553 618.558 380.638 604.178 379.483L604.101 380.447ZM633.649 380.453C635.101 362.011 637.133 334.105 638.512 310.324C639.202 298.435 639.728 287.572 639.937 279.438C640.041 275.372 640.067 271.981 639.992 269.482C639.955 268.233 639.893 267.198 639.803 266.409C639.757 266.015 639.704 265.675 639.64 265.395C639.579 265.126 639.5 264.875 639.387 264.686L638.558 265.184C638.59 265.238 638.642 265.367 638.697 265.61C638.749 265.842 638.798 266.145 638.841 266.52C638.928 267.269 638.989 268.273 639.025 269.51C639.099 271.983 639.074 275.353 638.97 279.413C638.761 287.532 638.235 298.382 637.546 310.268C636.168 334.04 634.136 361.939 632.685 380.377L633.649 380.453ZM638.786 265.382L644.592 267.801L644.964 266.908L639.159 264.489L638.786 265.382ZM644.295 267.329C643.327 285.486 642.263 312.878 641.247 336.104C640.739 347.719 640.243 358.293 639.778 366.153C639.545 370.084 639.32 373.332 639.105 375.691C638.998 376.871 638.893 377.823 638.793 378.525C638.742 378.876 638.694 379.159 638.647 379.373C638.598 379.599 638.559 379.711 638.541 379.747L639.404 380.183C639.483 380.028 639.542 379.811 639.593 379.578C639.646 379.333 639.698 379.025 639.75 378.663C639.855 377.937 639.961 376.965 640.069 375.779C640.285 373.404 640.511 370.144 640.744 366.21C641.209 358.342 641.705 347.762 642.213 336.146C643.23 312.911 644.294 285.531 645.261 267.38L644.295 267.329ZM639.016 380.447C646.302 379.796 649.637 378.977 652.65 378.124L652.387 377.193C649.431 378.03 646.155 378.838 638.929 379.483L639.016 380.447ZM652.036 377.693L658.809 472.516L659.774 472.447L653.001 377.624L652.036 377.693ZM658.808 472.495L662.002 584.735L662.969 584.707L659.775 472.468L658.808 472.495ZM662.486 585.205H665.581V584.237H662.486V585.205ZM665.136 584.531L662.234 591.304L663.123 591.685L666.026 584.912L665.136 584.531ZM662.678 591.011H624.943V591.978H662.678V591.011ZM625.398 591.332L622.979 584.559L622.068 584.884L624.487 591.657L625.398 591.332ZM622.524 585.205H624.565V584.237H622.524V585.205ZM625.048 584.694L616.234 426.495L615.268 426.548L624.082 584.748L625.048 584.694ZM615.267 426.51L611.555 584.71L612.523 584.733L616.234 426.533L615.267 426.51ZM612.039 585.205H615.267V584.237H612.039V585.205ZM614.834 584.505L611.448 591.278L612.313 591.711L615.699 584.938L614.834 584.505ZM611.88 591.011H572.209V591.978H611.88V591.011ZM572.642 591.278L569.256 584.505L568.39 584.938L571.777 591.711L572.642 591.278ZM568.823 585.205H570.585V584.237H568.823V585.205Z" fill="black"/>
<path d="M656.873 545.05L648.165 379.11L652.035 377.175C655.132 385.303 661.227 501.025 661.227 559.564L656.873 545.05Z" fill="black" fill-opacity="0.13"/>
<path d="M582.852 426.521L577.531 377.659C575.595 385.883 567.371 479.255 569.79 585.205L572.693 591.494H593.012L582.852 426.521Z" fill="black" fill-opacity="0.13"/>
<path d="M615.751 427.005L624.943 584.721H622.524L624.943 591.494H635.103L636.554 584.721L628.33 508.282L622.524 468.128L615.751 427.005Z" fill="black" fill-opacity="0.13"/>
<path d="M657.357 140.117C657.357 140.117 662.473 167.518 676.225 173.015C687.994 177.719 697.035 161.129 708.155 167.209C722.954 175.302 711.542 210.267 711.542 210.267" stroke="white" stroke-width="1.93516" stroke-dasharray="4.84 4.84"/>
<path d="M746.859 137.698C746.859 137.698 744.233 168.486 757.986 173.983C769.755 178.687 786.053 160.161 797.173 166.242C811.972 174.334 801.043 207.848 801.043 207.848" stroke="white" stroke-width="1.93516" stroke-dasharray="4.84 4.84"/>
<rect x="700.898" y="198.172" width="160.619" height="70.6335" rx="7.25687" fill="white" stroke="black" stroke-width="0.967582"/>
<rect x="712.509" y="211.718" width="135.462" height="4.83791" rx="2.41896" fill="white" stroke="black" stroke-width="0.967582"/>
<rect x="712.509" y="223.329" width="75.4714" height="4.83791" rx="2.41896" fill="white" stroke="black" stroke-width="0.967582"/>
<circle cx="653.487" cy="124.636" r="35.8005" fill="white" stroke="black" stroke-width="0.967582"/>
<path d="M653.486 138.182C673.321 138.182 678.643 150.761 678.643 150.761C678.643 150.761 673.908 155.073 669.451 157.05C663.516 159.683 658.808 160.437 652.035 160.437C645.262 160.437 644.778 159.953 638.972 158.018C633.167 156.082 627.361 149.309 627.361 149.309C627.361 149.309 632.145 138.182 653.486 138.182Z" fill="

#c9e7bf" stroke="black" stroke-width="0.967582"/>
<path d="M666.064 114.476H648.164V130.441V140.117C651.729 143.359 653.741 143.954 657.356 141.569L656.389 132.377C666.064 134.699 666.548 121.411 666.064 114.476Z" fill="white" stroke="black" stroke-width="0.967582"/>
<path d="M644.826 109.94C638.703 117.9 643.684 126.53 647.681 130.441L649.615 130.925C648.85 129.394 649.132 124.946 649.132 122.701C649.132 120.456 651.289 121.761 652.224 122.186C650.863 121.165 648.49 117.148 653.245 115.297C657.84 113.509 663.162 117.379 666.001 117.379L669.451 113.509C674.962 110.855 668.892 107.559 666.001 105.348C663.143 96.7755 656.306 102.626 653.245 106.623C651.408 105.807 646.782 108.834 644.826 109.94Z" fill="black" stroke="black" stroke-width="0.510246"/>
<circle cx="752.181" cy="105.284" r="35.8005" fill="white" stroke="black" stroke-width="0.967582"/>
<path fill-rule="evenodd" clip-rule="evenodd" d="M777.338 131.409C777.338 131.409 772.016 118.83 752.18 118.83C730.839 118.83 726.056 129.958 726.056 129.958C726.056 129.958 731.861 136.731 737.667 138.666C738.371 138.901 738.997 139.114 739.566 139.308C743.682 140.711 744.778 141.085 750.729 141.085C757.502 141.085 762.21 140.331 768.145 137.698C772.602 135.721 777.338 131.409 777.338 131.409ZM653.486 138.182C673.321 138.182 678.643 150.761 678.643 150.761C678.643 150.761 673.908 155.073 669.451 157.05C663.516 159.683 658.808 160.437 652.035 160.437C646.083 160.437 644.988 160.063 640.871 158.66L640.871 158.659C640.302 158.466 639.677 158.252 638.972 158.018C633.167 156.082 627.361 149.309 627.361 149.309C627.361 149.309 632.145 138.182 653.486 138.182ZM712.025 249.938C712.025 245.128 715.924 241.229 720.734 241.229H750.729C755.538 241.229 759.437 245.128 759.437 249.938C759.437 254.747 755.538 258.646 750.729 258.646H720.734C715.924 258.646 712.025 254.747 712.025 249.938Z" fill="#504DF5"/>
<path d="M777.338 131.409L777.663 131.767L777.917 131.536L777.783 131.22L777.338 131.409ZM726.056 129.958L725.611 129.766L725.492 130.043L725.688 130.272L726.056 129.958ZM737.667 138.666L737.514 139.125L737.514 139.125L737.667 138.666ZM739.566 139.308L739.722 138.85L739.722 138.85L739.566 139.308ZM768.145 137.698L768.342 138.14L768.342 138.14L768.145 137.698ZM678.643 150.761L678.969 151.118L679.222 150.888L679.089 150.572L678.643 150.761ZM669.451 157.05L669.255 156.608L669.255 156.608L669.451 157.05ZM640.871 158.66L640.714 159.117L640.715 159.118L640.871 158.66ZM640.871 158.659L641.028 158.202L641.027 158.201L640.871 158.659ZM638.972 158.018L639.125 157.559L639.125 157.559L638.972 158.018ZM627.361 149.309L626.917 149.118L626.798 149.395L626.994 149.624L627.361 149.309ZM752.18 119.314C761.986 119.314 768.166 122.42 771.889 125.493C773.754 127.032 775.01 128.569 775.797 129.717C776.191 130.291 776.467 130.767 776.644 131.097C776.732 131.262 776.795 131.39 776.836 131.475C776.856 131.518 776.871 131.55 776.88 131.571C776.885 131.581 776.888 131.588 776.89 131.593C776.891 131.595 776.892 131.597 776.892 131.597C776.892 131.598 776.892 131.598 776.892 131.598C776.892 131.598 776.892 131.598 776.892 131.598C776.892 131.598 776.892 131.597 777.338 131.409C777.783 131.22 777.783 131.22 777.783 131.22C777.783 131.219 777.783 131.219 777.782 131.219C777.782 131.218 777.782 131.217 777.781 131.216C777.78 131.213 777.779 131.21 777.777 131.207C777.774 131.199 777.769 131.188 777.763 131.175C777.751 131.148 777.733 131.109 777.71 131.06C777.663 130.961 777.593 130.819 777.497 130.64C777.305 130.282 777.01 129.775 776.595 129.17C775.765 127.959 774.45 126.352 772.505 124.746C768.608 121.53 762.21 118.347 752.18 118.347V119.314ZM726.056 129.958C726.5 130.149 726.5 130.149 726.5 130.149C726.5 130.149 726.5 130.149 726.5 130.149C726.5 130.15 726.5 130.15 726.5 130.149C726.5 130.149 726.5 130.148 726.501 130.146C726.503 130.143 726.505 130.137 726.509 130.128C726.517 130.111 726.53 130.084 726.548 130.047C726.585 129.973 726.642 129.862 726.724 129.718C726.887 129.43 727.146 129.013 727.524 128.509C728.279 127.501 729.509 126.146 731.398 124.787C735.169 122.071 741.599 119.314 752.18 119.314V118.347C741.421 118.347 734.788 121.153 730.832 124.001C728.857 125.423 727.558 126.85 726.749 127.929C726.345 128.468 726.064 128.92 725.882 129.241C725.791 129.401 725.725 129.529 725.681 129.618C725.659 129.663 725.642 129.698 725.631 129.723C725.625 129.736 725.62 129.745 725.617 129.753C725.616 129.756 725.614 129.759 725.613 129.762C725.613 129.763 725.612 129.764 725.612 129.765C725.612 129.765 725.612 129.765 725.612 129.766C725.611 129.766 725.611 129.766 726.056 129.958ZM737.82 138.207C735.013 137.271 732.17 135.148 730.006 133.224C728.929 132.267 728.032 131.37 727.403 130.712C727.09 130.383 726.843 130.115 726.676 129.929C726.592 129.836 726.529 129.764 726.486 129.715C726.465 129.691 726.449 129.672 726.438 129.66C726.433 129.654 726.429 129.649 726.426 129.647C726.425 129.645 726.424 129.644 726.424 129.643C726.423 129.643 726.423 129.643 726.423 129.643C726.423 129.643 726.423 129.643 726.423 129.643C726.423 129.643 726.423 129.643 726.056 129.958C725.688 130.272 725.688 130.272 725.689 130.273C725.689 130.273 725.689 130.273 725.689 130.273C725.689 130.273 725.689 130.274 725.69 130.274C725.691 130.275 725.692 130.277 725.693 130.278C725.697 130.282 725.701 130.287 725.707 130.294C725.719 130.307 725.736 130.327 725.759 130.353C725.804 130.405 725.87 130.48 725.957 130.576C726.13 130.768 726.382 131.044 726.704 131.38C727.345 132.053 728.262 132.969 729.363 133.948C731.552 135.894 734.515 138.125 737.514 139.125L737.82 138.207ZM739.722 138.85C739.153 138.656 738.526 138.442 737.82 138.207L737.514 139.125C738.216 139.359 738.841 139.572 739.41 139.766L739.722 138.85ZM750.729 140.601C747.759 140.601 746.032 140.507 744.543 140.246C743.054 139.985 741.787 139.554 739.722 138.85L739.41 139.766C741.46 140.465 742.8 140.923 744.376 141.199C745.952 141.475 747.748 141.569 750.729 141.569V140.601ZM767.949 137.256C762.089 139.855 757.451 140.601 750.729 140.601V141.569C757.553 141.569 762.331 140.806 768.342 138.14L767.949 137.256ZM777.338 131.409C777.012 131.051 777.012 131.051 777.012 131.051C777.012 131.051 777.012 131.051 777.012 131.051C777.012 131.051 777.011 131.051 777.011 131.052C777.011 131.052 777.01 131.053 777.009 131.054C777.007 131.056 777.004 131.058 776.999 131.062C776.991 131.07 776.978 131.082 776.96 131.098C776.926 131.129 776.874 131.175 776.805 131.235C776.669 131.355 776.469 131.529 776.215 131.744C775.707 132.175 774.982 132.771 774.12 133.427C772.389 134.745 770.126 136.29 767.949 137.256L768.342 138.14C770.622 137.129 772.955 135.53 774.706 134.197C775.584 133.528 776.322 132.922 776.841 132.483C777.1 132.263 777.305 132.085 777.445 131.961C777.515 131.899 777.569 131.851 777.606 131.818C777.625 131.802 777.639 131.789 777.648 131.78C777.653 131.776 777.657 131.773 777.659 131.77C777.66 131.769 777.661 131.768 777.662 131.768C777.662 131.767 777.663 131.767 777.663 131.767C777.663 131.767 777.663 131.767 777.663 131.767C777.663 131.767 777.663 131.767 777.338 131.409ZM678.643 150.761C679.089 150.572 679.089 150.572 679.088 150.571C679.088 150.571 679.088 150.571 679.088 150.57C679.088 150.57 679.087 150.569 679.087 150.568C679.086 150.565 679.084 150.562 679.083 150.558C679.079 150.551 679.075 150.54 679.069 150.527C679.057 150.5 679.039 150.461 679.015 150.412C678.968 150.313 678.898 150.171 678.802 149.992C678.61 149.634 678.316 149.127 677.901 148.522C677.07 147.311 675.756 145.703 673.811 144.098C669.914 140.882 663.516 137.698 653.486 137.698V138.666C663.292 138.666 669.472 141.772 673.195 144.845C675.06 146.384 676.316 147.921 677.103 149.069C677.496 149.643 677.773 150.119 677.949 150.449C678.038 150.614 678.101 150.742 678.142 150.827C678.162 150.87 678.177 150.902 678.186 150.923C678.191 150.933 678.194 150.94 678.196 150.945C678.197 150.947 678.197 150.948 678.198 150.949C678.198 150.95 678.198 150.95 678.198 150.95C678.198 150.95 678.198 150.95 678.198 150.95C678.198 150.949 678.198 150.949 678.643 150.761ZM669.647 157.492C671.927 156.481 674.26 154.882 676.012 153.549C676.89 152.88 677.628 152.274 678.146 151.834C678.406 151.615 678.611 151.436 678.751 151.313C678.821 151.251 678.875 151.203 678.912 151.17C678.93 151.153 678.944 151.141 678.954 151.132C678.959 151.128 678.962 151.124 678.965 151.122C678.966 151.121 678.967 151.12 678.968 151.119C678.968 151.119 678.968 151.119 678.969 151.119C678.969 151.119 678.969 151.119 678.969 151.118C678.969 151.118 678.969 151.118 678.643 150.761C678.317 150.403 678.317 150.403 678.317 150.403C678.317 150.403 678.317 150.403 678.317 150.403C678.317 150.403 678.317 150.403 678.317 150.403C678.316 150.404 678.316 150.405 678.315 150.406C678.313 150.407 678.309 150.41 678.305 150.414C678.296 150.422 678.283 150.434 678.266 150.449C678.231 150.481 678.179 150.527 678.111 150.587C677.975 150.707 677.775 150.881 677.521 151.096C677.012 151.527 676.288 152.123 675.426 152.779C673.695 154.096 671.432 155.642 669.255 156.608L669.647 157.492ZM652.035 160.92C658.859 160.92 663.637 160.158 669.647 157.492L669.255 156.608C663.395 159.207 658.757 159.953 652.035 159.953V160.92ZM640.715 159.118C642.766 159.817 644.105 160.274 645.681 160.551C647.257 160.827 649.054 160.92 652.035 160.92V159.953C649.064 159.953 647.337 159.859 645.849 159.598C644.36 159.337 643.093 158.906 641.027 158.202L640.715 159.118ZM640.714 159.117L640.714 159.117L641.028 158.202L641.028 158.202L640.714 159.117ZM638.819 158.477C639.522 158.711 640.146 158.924 640.715 159.117L641.027 158.201C640.459 158.008 639.831 157.794 639.125 157.559L638.819 158.477ZM627.361 149.309C626.994 149.624 626.994 149.624 626.994 149.624C626.994 149.624 626.994 149.625 626.994 149.625C626.995 149.625 626.995 149.625 626.996 149.626C626.996 149.627 626.998 149.628 626.999 149.63C627.002 149.634 627.007 149.639 627.013 149.646C627.024 149.659 627.042 149.679 627.064 149.705C627.109 149.756 627.176 149.832 627.263 149.928C627.435 150.12 627.688 150.396 628.009 150.732C628.651 151.404 629.568 152.321 630.668 153.299C632.858 155.246 635.821 157.477 638.819 158.477L639.125 157.559C636.318 156.623 633.476 154.5 631.311 152.576C630.235 151.619 629.337 150.722 628.709 150.064C628.395 149.735 628.149 149.466 627.982 149.28C627.898 149.188 627.834 149.115 627.792 149.067C627.77 149.042 627.754 149.024 627.744 149.012C627.738 149.006 627.735 149.001 627.732 148.998C627.731 148.997 627.73 148.996 627.729 148.995C627.729 148.995 627.729 148.995 627.729 148.995C627.729 148.994 627.729 148.994 627.729 148.994C627.729 148.994 627.729 148.994 627.361 149.309ZM653.486 137.698C642.727 137.698 636.094 140.505 632.138 143.353C630.163 144.775 628.864 146.202 628.055 147.281C627.651 147.82 627.37 148.272 627.188 148.593C627.097 148.753 627.031 148.881 626.986 148.97C626.964 149.015 626.948 149.05 626.936 149.075C626.931 149.087 626.926 149.097 626.923 149.105C626.921 149.108 626.92 149.111 626.919 149.113C626.918 149.115 626.918 149.116 626.918 149.116C626.918 149.117 626.917 149.117 626.917 149.117C626.917 149.118 626.917 149.118 627.361 149.309C627.806 149.5 627.806 149.501 627.806 149.501C627.806 149.501 627.805 149.501 627.805 149.501C627.805 149.501 627.805 149.501 627.805 149.501C627.806 149.501 627.806 149.5 627.807 149.498C627.808 149.495 627.811 149.488 627.815 149.48C627.823 149.463 627.836 149.435 627.854 149.399C627.89 149.325 627.948 149.214 628.029 149.07C628.192 148.782 628.452 148.365 628.829 147.861C629.585 146.853 630.815 145.498 632.703 144.138C636.475 141.423 642.904 138.666 653.486 138.666V137.698ZM720.734 240.746C715.657 240.746 711.542 244.861 711.542 249.938H712.509C712.509 245.395 716.191 241.713 720.734 241.713V240.746ZM750.729 240.746H720.734V241.713H750.729V240.746ZM759.921 249.938C759.921 244.861 755.805 240.746 750.729 240.746V241.713C755.271 241.713 758.953 245.395 758.953 249.938H759.921ZM750.729 259.13C755.805 259.13 759.921 255.014 759.921 249.938H758.953C758.953 254.48 755.271 258.162 750.729 258.162V259.13ZM720.734 259.13H750.729V258.162H720.734V259.13ZM711.542 249.938C711.542 255.014 715.657 259.13 720.734 259.13V258.162C716.191 258.162 712.509 254.48 712.509 249.938H711.542Z" fill="black"/>
<path d="M752.18 118.83C772.016 118.83 777.338 131.409 777.338 131.409C777.338 131.409 772.602 135.721 768.145 137.698C762.21 140.331 757.502 141.085 750.729 141.085C743.956 141.085 743.805 139.633 738 137.698C732.195 135.763 726.056 129.958 726.056 129.958C726.056 129.958 730.839 118.83 752.18 118.83Z" fill="#050505" fill-opacity="0.38" stroke="black" stroke-width="0.967582"/>
<path d="M764.759 95.1248H746.858V111.09V120.766C750.424 124.008 752.435 124.603 756.05 122.217L755.083 113.025C764.759 115.347 765.242 102.059 764.759 95.1248Z" fill="#F3F3F3" stroke="black" stroke-width="0.967582"/>
<path d="M743.52 90.5883C737.397 98.5482 742.378 107.178 746.375 111.09L748.31 111.574C747.544 110.043 747.826 105.594 747.826 103.349C747.826 101.104 749.983 102.409 750.918 102.834C749.558 101.814 747.184 97.7968 751.939 95.9459C756.534 94.1572 761.856 98.0275 764.695 98.0275L768.145 94.1572C773.656 91.5039 767.586 88.2072 764.695 85.9961C761.838 77.424 755 83.2748 751.939 87.2717C750.102 86.4553 745.476 89.4828 743.52 90.5883Z" fill="black" stroke="black" stroke-width="0.510246"/>
<rect x="474.506" y="298.823" width="116.065" height="48.3347" rx="8.20226" fill="#F8F8F8" stroke="black" stroke-width="1.01197"/>
<path d="M495.957 316.711L496.992 319.896C497.157 320.403 497.629 320.746 498.162 320.746H501.511C502.194 320.746 502.478 321.621 501.925 322.022L499.216 323.991C498.785 324.304 498.605 324.859 498.769 325.366L499.804 328.551C500.015 329.201 499.271 329.741 498.718 329.34L496.009 327.371C495.578 327.058 494.994 327.058 494.563 327.371L491.854 329.34C491.301 329.741 490.557 329.201 490.768 328.551L491.803 325.366C491.968 324.859 491.787 324.304 491.357 323.991L488.647 322.022C488.094 321.621 488.378 320.746 489.062 320.746H492.411C492.944 320.746 493.416 320.403 493.58 319.896L494.615 316.711C494.826 316.061 495.746 316.061 495.957 316.711Z" fill="#3E4EDD" stroke="black" stroke-width="0.524107"/>
<path d="M520.491 316.63C520.781 315.739 522.042 315.739 522.331 316.63L523.366 319.815C523.496 320.214 523.867 320.484 524.287 320.484H527.636C528.573 320.484 528.963 321.683 528.204 322.234L525.495 324.203C525.156 324.449 525.014 324.886 525.143 325.285L526.178 328.47C526.468 329.361 525.448 330.103 524.689 329.552L521.98 327.583C521.641 327.337 521.182 327.337 520.842 327.583L518.133 329.552C517.375 330.103 516.354 329.361 516.644 328.47L517.679 325.285C517.809 324.886 517.667 324.449 517.327 324.203L514.618 322.234C513.86 321.683 514.25 320.484 515.187 320.484H518.536C518.955 320.484 519.327 320.214 519.456 319.815L520.491 316.63Z" fill="#3E4EDD"/>
<path d="M546.616 316.63C546.906 315.739 548.167 315.739 548.456 316.63L549.491 319.815C549.621 320.214 549.992 320.484 550.412 320.484H553.761C554.698 320.484 555.088 321.683 554.329 322.234L551.62 324.203C551.281 324.449 551.139 324.886 551.268 325.285L552.303 328.47C552.593 329.361 551.573 330.103 550.814 329.552L548.105 327.583C547.766 327.337 547.307 327.337 546.967 327.583L544.258 329.552C543.5 330.103 542.479 329.361 542.769 328.47L543.804 325.285C543.934 324.886 543.792 324.449 543.452 324.203L540.743 322.234C539.985 321.683 540.375 320.484 541.312 320.484H544.661C545.08 320.484 545.452 320.214 545.581 319.815L546.616 316.63Z" fill="#3E4EDD"/>
<path d="M572.741 316.63C573.031 315.739 574.292 315.739 574.581 316.63L575.616 319.815C575.746 320.214 576.117 320.484 576.537 320.484H579.886C580.823 320.484 581.213 321.683 580.454 322.234L577.745 324.203C577.406 324.449 577.264 324.886 577.393 325.285L578.428 328.47C578.718 329.361 577.698 330.103 576.939 329.552L574.23 327.583C573.891 327.337 573.432 327.337 573.092 327.583L570.383 329.552C569.625 330.103 568.604 329.361 568.894 328.47L569.929 325.285C570.059 324.886 569.917 324.449 569.577 324.203L566.868 322.234C566.11 321.683 566.5 320.484 567.437 320.484H570.786C571.205 320.484 571.577 320.214 571.706 319.815L572.741 316.63Z" fill="#3E4EDD"/>
</svg>
