<svg class="illustration" width="1152" height="700" viewBox="0 0 1152 700" fill="none" xmlns="http://www.w3.org/2000/svg">
<rect x="242" y="150" width="568.233" height="366.655" rx="4.14769" fill="
#00801f"/>
<circle cx="385.51" cy="333.328" r="91.2491" fill="#FFF9EA"/>
<rect x="525.702" y="242.079" width="211.532" height="20.7384" rx="10.3692" fill="#FFFEFE"/>
<rect x="525.702" y="271.942" width="140.192" height="14.1021" rx="7.05107" fill="#FFFEFE"/>
<rect x="670.041" y="271.942" width="67.1925" height="14.1021" rx="7.05107" fill="#FFFEFE"/>
<rect x="525.702" y="333.328" width="67.1925" height="14.1021" rx="7.05107" fill="#FFFEFE"/>
<rect x="595.383" y="333.328" width="28.2043" height="14.1021" rx="7.05107" fill="#FFFEFE"/>
<rect x="525.702" y="355.725" width="97.8854" height="14.1021" rx="7.05107" fill="#FFFEFE"/>
<rect x="525.702" y="394.713" width="211.532" height="7.46583" rx="3.73292" fill="#FFFEFE"/>
<rect x="525.702" y="410.475" width="211.532" height="7.46583" rx="3.73292" fill="#FFFEFE"/>
<rect x="525.702" y="426.236" width="181.669" height="7.46583" rx="3.73292" fill="#FFFEFE"/>
<rect x="525.702" y="441.997" width="140.192" height="7.46583" rx="3.73292" fill="#FFFEFE"/>
<path d="M416.618 380.611C400.18 367.451 366.431 376.536 361.868 380.611C349.833 391.361 350.255 417.11 350.255 417.11C386.423 433.701 420.351 420.429 432.794 411.718C432.794 411.718 428.099 389.803 416.618 380.611Z" fill="#8E8DE6"/>
<path fill-rule="evenodd" clip-rule="evenodd" d="M383.436 286.044C378.622 286.044 374.518 288.792 372.935 292.649C371.182 291.619 369.091 291.021 366.845 291.021C360.66 291.021 355.647 295.557 355.647 301.153C355.647 301.374 355.654 301.594 355.67 301.811C349.666 301.998 344.863 306.46 344.863 311.937C344.863 312.543 344.921 313.136 345.034 313.713C342.885 315.559 341.544 318.169 341.544 321.062C341.544 324.491 343.426 327.521 346.307 329.355C345.387 330.825 344.863 332.525 344.863 334.335C344.863 339.931 349.876 344.467 356.061 344.467C356.151 344.467 356.241 344.466 356.331 344.464C362.722 351.349 372.307 355.725 383.021 355.725C395.067 355.725 405.686 350.194 411.943 341.785C412.65 341.912 413.381 341.978 414.129 341.978C420.314 341.978 425.328 337.442 425.328 331.846C425.328 328.671 423.714 325.837 421.187 323.979C425.533 322.587 428.646 318.835 428.646 314.426C428.646 308.83 423.632 304.294 417.447 304.294C415.781 304.294 414.2 304.623 412.779 305.213C413.38 303.97 413.714 302.597 413.714 301.153C413.714 295.557 408.7 291.021 402.515 291.021C399.328 291.021 396.452 292.226 394.413 294.159C393.379 289.53 388.858 286.044 383.436 286.044Z" fill="black"/>
<path d="M373.896 377.708V363.191H400.027V377.708C393.391 390.317 380.395 382.962 373.896 377.708Z" fill="#FFC8C8"/>
<path d="M406.249 316.737L363.113 324.203C363.113 324.203 358.157 347.876 365.601 359.458C371.88 369.227 379.391 371.718 390.072 370.242C398.948 369.016 401.734 367.198 406.249 359.458C410.763 351.718 406.249 316.737 406.249 316.737Z" fill="#FFD8D8"/>
<rect x="495.838" y="308.442" width="413.962" height="267.111" rx="3.02162" fill="
#c9e7bf"/>
<circle cx="600.386" cy="441.997" r="66.4756" fill="#FFEAEA"/>
<rect x="702.517" y="375.521" width="154.102" height="15.1081" rx="7.55404" fill="#FFFEFE"/>
<rect x="702.517" y="397.277" width="102.131" height="10.2735" rx="5.13675" fill="#FFFEFE"/>
<rect x="807.669" y="397.277" width="48.9502" height="10.2735" rx="5.13675" fill="#FFFEFE"/>
<rect x="702.517" y="441.998" width="48.9502" height="10.2735" rx="5.13675" fill="#FFFEFE"/>
<rect x="753.28" y="441.998" width="20.547" height="10.2735" rx="5.13675" fill="#FFFEFE"/>
<rect x="702.517" y="458.314" width="71.3102" height="10.2735" rx="5.13675" fill="#FFFEFE"/>
<rect x="702.517" y="486.717" width="154.102" height="5.43891" rx="2.71946" fill="#FFFEFE"/>
<rect x="702.517" y="498.199" width="154.102" height="5.43891" rx="2.71946" fill="#FFFEFE"/>
<rect x="702.517" y="509.681" width="132.347" height="5.43891" rx="2.71946" fill="#FFFEFE"/>
<rect x="702.517" y="521.163" width="102.131" height="5.43891" rx="2.71946" fill="#FFFEFE"/>
<path d="M623.049 476.442C611.073 466.854 586.487 473.473 583.163 476.442C574.396 484.273 574.703 503.032 574.703 503.032C601.051 515.118 625.768 505.449 634.833 499.104C634.833 499.104 631.413 483.138 623.049 476.442Z" fill="#2EB0A1"/>
<path fill-rule="evenodd" clip-rule="evenodd" d="M598.875 407.55C595.368 407.55 592.378 409.552 591.225 412.362C589.948 411.612 588.425 411.176 586.789 411.176C582.283 411.176 578.631 414.481 578.631 418.558C578.631 418.719 578.636 418.878 578.648 419.037C574.274 419.173 570.775 422.423 570.775 426.414C570.775 426.855 570.817 427.287 570.899 427.707C569.334 429.052 568.357 430.954 568.357 433.061C568.357 435.559 569.728 437.767 571.826 439.102C571.157 440.174 570.775 441.412 570.775 442.73C570.775 446.807 574.427 450.112 578.933 450.112C578.998 450.112 579.064 450.111 579.129 450.11C583.785 455.125 590.768 458.313 598.574 458.313C607.349 458.313 615.085 454.284 619.643 448.158C620.158 448.25 620.691 448.298 621.236 448.298C625.741 448.298 629.394 444.994 629.394 440.917C629.394 438.604 628.218 436.54 626.378 435.186C629.544 434.172 631.811 431.439 631.811 428.227C631.811 424.15 628.159 420.845 623.653 420.845C622.439 420.845 621.287 421.085 620.252 421.515C620.69 420.61 620.934 419.609 620.934 418.558C620.934 414.481 617.281 411.176 612.775 411.176C610.453 411.176 608.358 412.054 606.872 413.462C606.12 410.089 602.825 407.55 598.875 407.55Z" fill="#F25DE3"/>
<path d="M591.926 474.327V463.751H610.962V474.327C606.128 483.512 596.66 478.154 591.926 474.327Z" fill="#FFC8C8"/>
<path d="M615.495 429.909L584.07 435.348C584.07 435.348 580.46 452.594 585.883 461.032C590.457 468.149 595.928 469.963 603.71 468.888C610.176 467.995 612.206 466.67 615.495 461.032C618.784 455.394 615.495 429.909 615.495 429.909Z" fill="#FFD8D8"/>
</svg>