<svg class="illustration"  width="1155" height="700" viewBox="0 0 1155 700" fill="none" xmlns="http://www.w3.org/2000/svg">
<path fill-rule="evenodd" clip-rule="evenodd" d="M759.33 261.862C759.33 278.182 772.605 291.459 788.926 291.459C805.246 291.459 818.523 278.182 818.523 261.862V71.2283C818.523 54.9081 805.246 41.6309 788.926 41.6309C772.605 41.6309 759.33 54.9081 759.33 71.2283V261.862ZM760.886 71.2283C760.886 55.7669 773.465 43.1884 788.926 43.1884C804.388 43.1884 816.967 55.7669 816.967 71.2283V261.862C816.967 277.323 804.388 289.902 788.926 289.902C773.465 289.902 760.886 277.323 760.886 261.862V71.2283ZM352.116 675H542.75C559.07 675 572.346 661.723 572.346 645.402C572.346 629.082 559.07 615.805 542.75 615.805H352.116C335.795 615.805 322.52 629.082 322.52 645.402C322.52 661.723 335.795 675 352.116 675ZM324.076 645.402C324.076 629.941 336.655 617.362 352.116 617.362H542.75C558.21 617.362 570.79 629.941 570.79 645.402C570.79 660.864 558.21 673.442 542.75 673.442H352.116C336.655 673.442 324.076 660.864 324.076 645.402Z" fill="#CCCCCC"/>
<path fill-rule="evenodd" clip-rule="evenodd" d="M271.895 26.3669H663.822C665.339 26.3669 666.555 27.5835 666.555 29.1003V547.078C666.555 548.581 665.339 549.811 663.822 549.811H271.895C270.391 549.811 269.161 548.581 269.161 547.078V29.1003C269.161 27.5835 270.391 26.3669 271.895 26.3669ZM940.075 420.367C940.075 425.36 938.461 429.974 935.751 433.752C946.739 439.72 955.356 451.76 955.356 463.648C955.356 468.574 951.348 472.582 946.421 472.582H887.647C882.721 472.582 878.713 468.574 878.713 463.648C878.713 451.76 887.328 439.72 898.317 433.752C895.607 429.975 893.993 425.36 893.993 420.367C893.993 407.663 904.329 397.327 917.033 397.327C929.738 397.327 940.075 407.663 940.075 420.367ZM926.576 420.367C926.576 415.106 922.296 410.825 917.033 410.825C911.772 410.825 907.492 415.106 907.492 420.367C907.492 425.571 911.681 429.808 916.862 429.901H917.205C922.388 429.808 926.576 425.571 926.576 420.367ZM912.461 443.398C904.682 443.398 895.705 451.122 893.013 459.085H941.055C938.363 451.122 929.386 443.398 921.607 443.398H917.205C917.176 443.399 917.149 443.401 917.121 443.403C917.092 443.405 917.063 443.407 917.033 443.407C917.012 443.407 916.992 443.406 916.971 443.405L916.946 443.403C916.932 443.402 916.918 443.401 916.904 443.4C916.89 443.399 916.876 443.399 916.862 443.398H912.461ZM688.057 178.652C693.133 178.652 697.248 174.537 697.248 169.461C697.248 164.385 693.133 160.27 688.057 160.27C682.981 160.27 678.866 164.385 678.866 169.461C678.866 174.537 682.981 178.652 688.057 178.652ZM697.248 200.042C697.248 205.119 693.133 209.234 688.057 209.234C682.981 209.234 678.866 205.119 678.866 200.042C678.866 194.966 682.981 190.851 688.057 190.851C693.133 190.851 697.248 194.966 697.248 200.042ZM212.531 549.813C217.607 549.813 221.722 545.698 221.722 540.622C221.722 535.546 217.607 531.43 212.531 531.43C207.455 531.43 203.34 535.546 203.34 540.622C203.34 545.698 207.455 549.813 212.531 549.813ZM252.304 540.622C252.304 545.698 248.189 549.813 243.113 549.813C238.036 549.813 233.921 545.698 233.921 540.622C233.921 535.546 238.036 531.43 243.113 531.43C248.189 531.43 252.304 535.546 252.304 540.622Z" fill="#00801f"/>
<g opacity="0.7">
<path opacity="0.2" d="M788.839 68.0383H364.785V127.406H788.839V68.0383Z" fill="#1A1A1A"/>
</g>
<path opacity="0.06" fill-rule="evenodd" clip-rule="evenodd" d="M535.401 549.816H459.985V549.817H384.571V549.814H309.155V549.81H271.89C270.386 549.81 269.156 548.58 269.156 547.076V494.144C269.908 494.199 270.687 494.226 271.453 494.226C281.866 494.226 291.297 490.004 298.116 483.183C304.807 476.493 308.999 467.289 309.155 457.11V386.979C309.155 366.154 326.037 349.271 346.863 349.271H346.863C367.689 349.271 384.571 366.154 384.571 386.979V415.71C384.67 436.453 401.51 453.232 422.278 453.232C432.692 453.232 442.122 449.01 448.942 442.189C455.728 435.404 459.943 426.032 459.984 415.679V331.709C459.984 310.884 476.867 294.001 497.693 294.001C518.518 294.001 535.401 310.884 535.401 331.709V549.816ZM666.551 547.078V353.855C661.194 350.944 655.058 349.276 648.524 349.276C627.696 349.276 610.818 366.155 610.818 386.983V549.811H663.818C665.335 549.811 666.551 548.581 666.551 547.078ZM610.816 549.812V389.253C610.816 399.667 606.592 409.097 599.773 415.917C592.953 422.737 583.523 426.96 573.108 426.96C552.28 426.96 535.402 410.081 535.402 389.253V549.812H610.816Z" fill="#1A1A1A"/>
<path opacity="0.13" fill-rule="evenodd" clip-rule="evenodd" d="M666.548 108.479V71.1953H484.258V105.54C484.258 107.167 485.584 108.479 487.21 108.479H666.548ZM576.859 282.365V197.193C576.859 195.082 575.148 193.37 573.036 193.37H321.838C319.727 193.37 318.015 195.082 318.015 197.193V266.79C316.416 275.523 311.172 283.444 304.187 290.977C302.884 292.382 304.145 294.627 306.018 294.225L343.452 286.188H573.036C575.148 286.188 576.859 284.476 576.859 282.365ZM578.315 462.24H412.563C410.402 462.24 408.651 463.991 408.651 466.152V498.246C407.014 507.181 401.649 515.286 394.502 522.994C393.169 524.432 394.459 526.729 396.376 526.317L434.678 518.094H578.315C580.475 518.094 582.227 516.342 582.227 514.182V466.152C582.227 463.991 580.475 462.24 578.315 462.24Z" fill="#1A1A1A"/>
<g opacity="0.12">
<path opacity="0.12" d="M628.613 388.678V397.578C628.613 398.738 629.548 399.672 630.697 399.672H666.543V386.596H630.697C629.548 386.596 628.613 387.531 628.613 388.678Z" fill="#1A1A1A"/>
<path opacity="0.12" d="M610.551 352.952C606.15 352.952 602.555 356.536 602.555 360.948V425.333C602.555 429.734 606.15 433.32 610.551 433.32H666.544V423.122H616.312V363.159H666.544V352.952H610.551Z" fill="#1A1A1A"/>
</g>
<path fill-rule="evenodd" clip-rule="evenodd" d="M862.912 377.246C864.327 384.189 868.482 391.197 875.941 399.242C878.576 402.084 879.063 406.258 877.153 409.627C875.555 412.444 872.614 414.112 869.477 414.112C868.866 414.112 868.248 414.048 867.63 413.918L867.606 413.913L828.167 405.44H795.681V638.892C795.681 644.228 791.34 648.569 786.004 648.569H367.716C362.379 648.569 358.037 644.228 358.037 638.892V585.436H205.749C202.022 585.436 199 582.414 199 578.687C199 574.96 202.022 571.938 205.749 571.938H358.037V264.622H336.437L296.291 273.241C294.282 273.672 292.93 271.265 294.327 269.758C301.818 261.679 307.442 253.184 309.157 243.818V169.178C309.157 166.914 310.993 165.078 313.258 165.078H358.037V68.0342C358.037 62.6982 362.379 58.3572 367.716 58.3572H786.004C791.34 58.3572 795.681 62.6982 795.681 68.0342V312.893H852.063C858.045 312.893 862.912 317.76 862.912 323.742V377.246ZM371.536 635.072H782.182V405.44H582.66C576.678 405.44 571.81 400.573 571.81 394.591V323.742C571.81 317.76 576.678 312.893 582.66 312.893H782.182V71.8546H371.536V165.078H582.658C584.922 165.078 586.758 166.914 586.758 169.178V260.522C586.758 262.786 584.922 264.622 582.658 264.622H371.536V571.938H729.953C733.681 571.938 736.701 574.96 736.701 578.687C736.701 582.414 733.681 585.436 729.953 585.436H371.536V635.072ZM585.309 391.942H829.6L857.611 397.96C853.308 391.615 850.683 385.454 849.524 379.101L849.413 378.501V326.39H585.309V391.942ZM404.826 457.817C404.826 455.553 406.661 453.717 408.926 453.717H582.658C584.922 453.717 586.758 455.553 586.758 457.817V508.16C586.758 510.424 584.922 512.26 582.658 512.26H432.106L391.96 520.879C389.951 521.311 388.598 518.903 389.995 517.397C397.487 509.318 403.11 500.822 404.826 491.457V457.817ZM834.518 350.484H601.019C599.51 350.484 598.286 351.708 598.286 353.218V364.887C598.286 366.396 599.51 367.62 601.019 367.62H834.518C836.028 367.62 837.252 366.396 837.252 364.887V353.218C837.252 351.708 836.028 350.484 834.518 350.484ZM291.614 314.883C291.614 319.809 287.606 323.817 282.679 323.817H223.906C218.98 323.817 214.971 319.809 214.971 314.883C214.971 302.995 223.587 290.954 234.576 284.987C231.866 281.209 230.253 276.595 230.253 271.602C230.253 258.897 240.588 248.562 253.293 248.562C265.997 248.562 276.333 258.897 276.333 271.602C276.333 276.595 274.719 281.209 272.009 284.987C282.997 290.955 291.614 302.995 291.614 314.883ZM262.834 271.602C262.834 266.34 258.554 262.059 253.293 262.059C248.032 262.059 243.751 266.34 243.751 271.602C243.751 276.81 247.947 281.051 253.135 281.136H253.451C258.639 281.051 262.834 276.81 262.834 271.602ZM253.135 294.634H248.719C240.94 294.634 231.964 302.357 229.272 310.319H277.313C274.621 302.357 265.645 294.634 257.867 294.634H253.451C253.398 294.634 253.346 294.642 253.293 294.642C253.239 294.642 253.188 294.634 253.135 294.634Z" fill="#c9e7bf"/>
<path opacity="0.1" d="M814.207 628.692H205.321C203.25 628.692 201.57 627.013 201.57 624.941V595.264C201.57 593.192 203.25 591.513 205.321 591.513H814.207C816.279 591.513 817.958 593.192 817.958 595.264V624.941C817.958 627.013 816.279 628.692 814.207 628.692Z" fill="black"/>
<path fill-rule="evenodd" clip-rule="evenodd" d="M477.736 97.9745H675.985C677.576 97.9745 678.866 96.6848 678.866 95.0938V65.1111H474.855V95.0938C474.855 96.6848 476.145 97.9745 477.736 97.9745ZM500.902 482.988C500.902 487.966 496.867 492.002 491.889 492.002C486.911 492.002 482.875 487.966 482.875 482.988C482.875 478.01 486.911 473.974 491.889 473.974C496.867 473.974 500.902 478.01 500.902 482.988Z" fill="#29D9C2"/>
<path fill-rule="evenodd" clip-rule="evenodd" d="M476.867 482.988C476.867 487.966 472.832 492.002 467.854 492.002C462.875 492.002 458.84 487.966 458.84 482.988C458.84 478.01 462.875 473.974 467.854 473.974C472.832 473.974 476.867 478.01 476.867 482.988ZM524.941 482.988C524.941 487.966 520.905 492.002 515.927 492.002C510.949 492.002 506.913 487.966 506.913 482.988C506.913 478.01 510.949 473.974 515.927 473.974C520.905 473.974 524.941 478.01 524.941 482.988Z" fill="#FFCD33"/>
<g opacity="0.72">
<path opacity="0.72" d="M731.98 615.937C735.202 615.937 737.815 613.324 737.815 610.102C737.815 606.879 735.202 604.266 731.98 604.266C728.757 604.266 726.145 606.879 726.145 610.102C726.145 613.324 728.757 615.937 731.98 615.937Z" fill="black"/>
</g>
<g opacity="0.42">
<path opacity="0.42" d="M747.542 615.936C750.765 615.936 753.377 613.324 753.377 610.101C753.377 606.879 750.765 604.266 747.542 604.266C744.32 604.266 741.707 606.879 741.707 610.101C741.707 613.324 744.32 615.936 747.542 615.936Z" fill="black"/>
</g>
<g opacity="0.79">
<path opacity="0.79" d="M763.101 615.936C766.323 615.936 768.936 613.324 768.936 610.101C768.936 606.879 766.323 604.266 763.101 604.266C759.878 604.266 757.266 606.879 757.266 610.101C757.266 613.324 759.878 615.936 763.101 615.936Z" fill="black"/>
</g>
<path opacity="0.33" fill-rule="evenodd" clip-rule="evenodd" d="M357.985 150.244H371.689V165.081H357.985V150.244ZM357.934 264.628H371.637V279.465H357.934V264.628ZM795.575 291.213H782.105V312.852H795.575V291.213ZM782.056 405.26H795.76V433.322H782.056V405.26Z" fill="#1A1A1A"/>
<path opacity="0.28" fill-rule="evenodd" clip-rule="evenodd" d="M330.687 209.894H564.185C565.695 209.894 566.919 208.671 566.919 207.161V195.492C566.919 193.982 565.695 192.759 564.185 192.759H330.687C329.177 192.759 327.953 193.982 327.953 195.492V207.161C327.953 208.671 329.177 209.894 330.687 209.894ZM330.687 234.989H564.185C565.695 234.989 566.919 233.765 566.919 232.255V220.586C566.919 219.077 565.695 217.853 564.185 217.853H330.687C329.177 217.853 327.953 219.077 327.953 220.586V232.255C327.953 233.765 329.177 234.989 330.687 234.989Z" fill="#F2F2F2"/>
<path d="M396.689 97.9722C400.471 97.9722 403.537 94.906 403.537 91.1236C403.537 87.3411 400.471 84.2749 396.689 84.2749C392.906 84.2749 389.84 87.3411 389.84 91.1236C389.84 94.906 392.906 97.9722 396.689 97.9722Z" fill="#E74C3C"/>
<path d="M417.821 97.9722C421.604 97.9722 424.67 94.906 424.67 91.1236C424.67 87.3411 421.604 84.2749 417.821 84.2749C414.039 84.2749 410.973 87.3411 410.973 91.1236C410.973 94.906 414.039 97.9722 417.821 97.9722Z" fill="#5FC47A"/>
<path d="M343.972 27.7334H233.742C232.986 27.7334 232.375 27.1214 232.375 26.3667C232.375 25.6119 232.986 25 233.742 25H343.972C344.727 25 345.338 25.6119 345.338 26.3667C345.338 27.1214 344.727 27.7334 343.972 27.7334Z" fill="#344F73"/>
<path d="M677.153 553.761H566.921C566.166 553.761 565.555 553.149 565.555 552.395C565.555 551.64 566.166 551.028 566.921 551.028H677.153C677.908 551.028 678.519 551.64 678.519 552.395C678.519 553.149 677.908 553.761 677.153 553.761Z" fill="#344F73"/>
<g opacity="0.43">
<path opacity="0.43" d="M576.506 482.77C574.619 482.77 573.089 481.241 573.089 479.354V467.027H555.253C553.365 467.027 551.836 465.497 551.836 463.61C551.836 461.723 553.365 460.193 555.253 460.193H573.772C577.164 460.193 579.923 462.952 579.923 466.343V479.354C579.923 481.241 578.393 482.77 576.506 482.77ZM573.772 467.027H573.786H573.772Z" fill="white"/>
</g>
</svg>