<svg class="illustration" width="1152" height="700" viewBox="0 0 1152 700" fill="none" xmlns="http://www.w3.org/2000/svg">
<path fill-rule="evenodd" clip-rule="evenodd" d="M542.455 103.35L542.467 103.344C546.123 99.9683 554.627 93.6425 559.495 95.2599C564.367 96.8791 668.454 156.654 719.889 186.339C725.98 189.713 738.161 202.126 738.161 224.795V585.065C738.161 591.414 732.883 604.233 711.767 604.709C716.602 602.716 720.856 598.104 721.747 588.807C720.855 598.101 716.602 602.711 711.768 604.704C707.529 606.451 702.844 606.185 699.586 605.299C660.333 583.035 576.549 534.865 555.434 520.292C534.319 505.719 530.394 480.487 531.07 469.692C531.747 358.373 533.507 131.686 535.131 115.494C535.792 108.905 538.717 105.221 542.455 103.35ZM368 276.62V330.774L497 251.349V199L368 276.62Z" fill="#00801f"/>
<path d="M721.919 232.891V585.065C721.919 596.9 717.212 602.465 711.767 604.709C732.883 604.233 738.161 591.414 738.161 585.065V224.795C738.161 202.126 725.98 189.713 719.889 186.339C668.454 156.654 564.367 96.8791 559.495 95.2599C554.622 93.6407 546.104 99.9824 542.455 103.356C547.903 100.629 555.08 101.755 559.495 103.356C604.161 129.667 696.337 183.91 707.707 190.387C719.076 196.864 721.919 221.422 721.919 232.891Z" fill="black" fill-opacity="0.1"/>
<path d="M551.374 465.646C546.501 460.789 546.636 455.527 547.313 453.503V133.712C547.313 128.855 551.374 128.99 553.404 129.665C601.455 157.326 698.774 213.458 703.647 216.696C708.519 219.934 709.737 228.84 709.737 232.888V544.582C709.737 554.297 702.97 554.027 699.586 552.678C652.212 525.691 556.247 470.504 551.374 465.646Z" fill="white"/>
<path d="M571.051 307.86V278.682L685.68 344.749V371.775L571.051 307.86Z" fill="#EDF3FF"/>
<path d="M570.361 354.09V324.912L684.99 390.979V418.006L570.361 354.09Z" fill="#EDF3FF"/>
<path d="M593.148 427.285V398.107L642.523 427.285V454.311L593.148 427.285Z" fill="#7D8CA6"/>
<path d="M660 247.737C660 264.608 655.582 274.165 634.85 270.047C619.216 262.839 608.68 244.305 605.621 231.263C602.562 218.22 601.85 199 621.935 199C642.019 199 660 230.867 660 247.737Z" fill="#EE7E79"/>
<path d="M640 233.246C640 238.869 638.58 242.055 631.916 240.682C626.891 238.28 623.504 232.102 622.521 227.754C621.538 223.407 621.309 217 627.765 217C634.221 217 640 227.622 640 233.246Z" fill="white"/>
<path d="M648 269.433C648 260.283 638.367 243 627.608 243C618.549 243 617.388 250.389 618.225 256.946C622.328 262.641 632.5 274 647.988 270.544C647.996 270.181 648 269.81 648 269.433Z" fill="white"/>
<path d="M506.613 327.124C491.191 325.085 486.769 339.53 486.486 347.008C467.769 353.332 473.095 370.111 478.098 377.711C472.375 381.085 463.25 391.355 472.526 405.439C484.12 423.044 520.862 412.666 528.689 390.824C534.95 373.35 527.671 361.772 523.249 358.167C524.129 348.669 522.035 329.164 506.613 327.124Z" fill="#4B5361"/>
<path d="M468.317 576.151C467.836 572.05 472.717 570.856 475.217 570.771C476.669 571.939 480.509 575.364 484.252 579.717C488.931 585.159 495.064 597.823 493.512 599.077C491.961 600.331 468.92 581.276 468.317 576.151Z" fill="#4B5361"/>
<path d="M556.07 589.652C554.313 587.556 554.504 583.775 554.82 582.146C559.126 581.429 564.258 578.417 566.286 577.001C571.843 577.652 583.544 579.153 585.89 579.956C588.237 580.76 588.195 583.222 587.88 584.353L556.07 589.652Z" fill="#4B5361"/>
<path fill-rule="evenodd" clip-rule="evenodd" d="M496.463 368.59C499.739 368.552 507.078 368.04 510.221 366.298C513.365 364.556 527.532 368.66 534.222 370.929C535.386 374.88 537.008 383.712 534.193 387.43C531.204 387.166 524.864 386.598 523.423 386.432C521.981 386.266 531.336 418.275 536.194 434.3C535.649 434.332 535.074 434.37 534.474 434.415C536.03 434.68 537.31 435.165 538.223 435.916L571.81 570.601C566.658 573.147 554.711 577.501 548.136 574.545L535.742 500.139C535.932 506.353 535.926 519.201 534.381 520.876C532.835 522.552 507.479 560.723 494.994 579.599C490.227 577.861 479.666 572.479 475.558 564.858C488.864 550.403 514.999 518.635 513.095 507.203C511.19 495.772 501.269 459.543 496.547 442.858C496.842 442.74 497.146 442.621 497.458 442.499L490.998 399.447L484.982 404.256C481.541 402.291 474.854 397.416 475.637 393.631C476.617 388.899 484.345 373.146 487.661 371.833C490.314 370.782 494.635 369.233 496.463 368.59Z" fill="
#c9e7bf"/>
<path d="M538.223 435.915C531.878 430.693 507.795 438.367 496.547 442.858C501.269 459.543 511.19 495.771 513.095 507.203C514.999 518.635 488.864 550.403 475.558 564.858C479.666 572.479 490.227 577.86 494.994 579.598C507.479 560.722 532.835 522.551 534.381 520.876C535.926 519.2 535.932 506.353 535.742 500.139L548.136 574.544C554.711 577.5 566.658 573.147 571.81 570.601L538.223 435.915Z" fill="black" fill-opacity="0.2"/>
<path d="M518.164 354.208C518.194 346.145 512.478 337.247 509.617 333.807C512.041 340.118 503.716 349.9 499.25 354.001C500.079 355.542 501.232 359.715 499.213 364.081C496.689 369.538 497.052 370.186 498.994 371.541C500.936 372.896 510.684 369.594 508.742 368.239C507.188 367.154 508.107 365.957 507.563 362.69C511.084 363.222 518.134 362.272 518.164 354.208Z" fill="#EDC7C5"/>
<path d="M533.741 385.154C530.612 383.44 531.257 377.356 531.971 374.528C540.094 374.529 556.884 374.442 559.058 374.079C561.774 373.627 569.552 345.648 569.802 344.099C570.051 342.55 570.214 331.332 570.419 329.52C570.625 327.708 572.766 328.367 572.766 329.891C572.766 331.11 572.958 334.6 573.054 336.192C574.495 336.206 577.5 336.975 577.994 339.941C578.488 342.906 575.977 345.102 574.659 345.83C572.82 357.649 568.542 381.643 566.138 383.059C563.734 384.475 543.538 385.046 533.741 385.154Z" fill="#EDC7C5"/>
<path d="M485.125 401.125C484.631 398.16 479.65 395.688 477.221 394.823C475.108 397.884 470.511 404.525 469.029 406.6C467.547 408.675 449.531 401.806 440.708 398.111C439.432 396.546 427.041 390.737 426.465 390.325C425.889 389.913 425.23 390.531 425.395 391.519C425.526 392.31 429.017 394.979 430.746 396.215C430.183 397.409 429.355 400.358 430.54 402.599C431.726 404.839 436.66 403.78 438.979 402.971C445.799 406.829 460.953 415.107 467.012 417.349C473.072 419.59 481.612 407.467 485.125 401.125Z" fill="#EDC7C5"/>
<path d="M406.839 278.065V270.361L489.371 220.5V226.391L406.839 278.065Z" fill="#EDF3FF"/>
<path d="M408.226 291.935V287.162L492.145 237.145V240.099L408.226 291.935Z" fill="#EDF3FF"/>
<ellipse cx="390.194" cy="293.669" rx="13.1774" ry="14.2177" fill="#EE7E79"/>
</svg>